<?xml version="1.0" encoding="utf-8" standalone="no"?>
<!DOCTYPE svg PUBLIC "-//W3C//DTD SVG 1.1//EN"
  "http://www.w3.org/Graphics/SVG/1.1/DTD/svg11.dtd">
<svg xmlns:xlink="http://www.w3.org/1999/xlink" width="540pt" height="216pt" viewBox="0 0 540 216" xmlns="http://www.w3.org/2000/svg" version="1.1">
 <metadata>
  <rdf:RDF xmlns:dc="http://purl.org/dc/elements/1.1/" xmlns:cc="http://creativecommons.org/ns#" xmlns:rdf="http://www.w3.org/1999/02/22-rdf-syntax-ns#">
   <cc:Work>
    <dc:type rdf:resource="http://purl.org/dc/dcmitype/StillImage"/>
    <dc:date>2026-03-22T21:20:30.713690</dc:date>
    <dc:format>image/svg+xml</dc:format>
    <dc:creator>
     <cc:Agent>
      <dc:title>Matplotlib v3.6.1, https://matplotlib.org/</dc:title>
     </cc:Agent>
    </dc:creator>
   </cc:Work>
  </rdf:RDF>
 </metadata>
 <defs>
  <style type="text/css">*{stroke-linejoin: round; stroke-linecap: butt}</style>
 </defs>
 <g id="figure_1">
  <g id="patch_1">
   <path d="M 0 216 
L 540 216 
L 540 0 
L 0 0 
z
" style="fill: #ffffff"/>
  </g>
  <g id="axes_1">
   <g id="patch_2">
    <path d="M 36.16 178.8144 
L 529.2 178.8144 
L 529.2 24.72 
L 36.16 24.72 
z
" style="fill: #ffffff"/>
   </g>
   <g id="BrokenBarHCollection_1">
    <path d="M 36.16 110.086473 
L 36.16 96.131564 
L 36.16 96.131564 
L 36.16 110.086473 
L 36.16 110.086473 
z
" clip-path="url(#p7bfe65d4e2)" style="fill: #1f77b4"/>
   </g>
   <g id="BrokenBarHCollection_2">
    <path d="M 36.16 88.617382 
L 36.16 74.662473 
L 36.16 74.662473 
L 36.16 88.617382 
L 36.16 88.617382 
z
" clip-path="url(#p7bfe65d4e2)" style="fill: #1f77b4"/>
   </g>
   <g id="BrokenBarHCollection_3">
    <path d="M 36.16 67.148291 
L 36.16 53.193382 
L 36.16 53.193382 
L 36.16 67.148291 
L 36.16 67.148291 
z
" clip-path="url(#p7bfe65d4e2)" style="fill: #1f77b4"/>
   </g>
   <g id="BrokenBarHCollection_4">
    <path d="M 36.16 45.6792 
L 36.16 31.724291 
L 36.16 31.724291 
L 36.16 45.6792 
L 36.16 45.6792 
z
" clip-path="url(#p7bfe65d4e2)" style="fill: #1f77b4"/>
   </g>
   <g id="BrokenBarHCollection_5">
    <defs>
     <path id="mc23ecdb3da" d="M 102.237526 -105.913527 
L 102.237526 -119.868436 
L 183.563711 -119.868436 
L 183.563711 -105.913527 
L 102.237526 -105.913527 
z
" style="stroke: #808080"/>
    </defs>
    <g clip-path="url(#p7bfe65d4e2)">
     <use xlink:href="#mc23ecdb3da" x="0" y="216" style="fill: #66c2a5; stroke: #808080"/>
    </g>
   </g>
   <g id="BrokenBarHCollection_6">
    <defs>
     <path id="mbccd9e2481" d="M 219.143918 -127.382618 
L 219.143918 -141.337527 
L 381.796289 -141.337527 
L 381.796289 -127.382618 
L 219.143918 -127.382618 
z
" style="stroke: #808080"/>
    </defs>
    <g clip-path="url(#p7bfe65d4e2)">
     <use xlink:href="#mbccd9e2481" x="0" y="216" style="fill: #66c2a5; stroke: #808080"/>
    </g>
   </g>
   <g id="BrokenBarHCollection_7">
    <defs>
     <path id="m158f3fcb9c" d="M 381.796289 -127.382618 
L 381.796289 -141.337527 
L 483.454021 -141.337527 
L 483.454021 -127.382618 
L 381.796289 -127.382618 
z
" style="stroke: #808080"/>
    </defs>
    <g clip-path="url(#p7bfe65d4e2)">
     <use xlink:href="#m158f3fcb9c" x="0" y="216" style="fill: #66c2a5; stroke: #808080"/>
    </g>
   </g>
   <g id="BrokenBarHCollection_8">
    <defs>
     <path id="m873878add1" d="M 346.216082 -170.3208 
L 346.216082 -184.275709 
L 519.034227 -184.275709 
L 519.034227 -170.3208 
L 346.216082 -170.3208 
z
" style="stroke: #808080"/>
    </defs>
    <g clip-path="url(#p7bfe65d4e2)">
     <use xlink:href="#m873878add1" x="0" y="216" style="fill: #fc8d62; stroke: #808080"/>
    </g>
   </g>
   <g id="BrokenBarHCollection_9">
    <defs>
     <path id="m28d2e36ab1" d="M 264.889897 -170.3208 
L 264.889897 -184.275709 
L 346.216082 -184.275709 
L 346.216082 -170.3208 
L 264.889897 -170.3208 
z
" style="stroke: #808080"/>
    </defs>
    <g clip-path="url(#p7bfe65d4e2)">
     <use xlink:href="#m28d2e36ab1" x="0" y="216" style="fill: #fc8d62; stroke: #808080"/>
    </g>
   </g>
   <g id="BrokenBarHCollection_10">
    <defs>
     <path id="m12fd798c44" d="M 61.574433 -148.851709 
L 61.574433 -162.806618 
L 244.558351 -162.806618 
L 244.558351 -148.851709 
L 61.574433 -148.851709 
z
" style="stroke: #808080"/>
    </defs>
    <g clip-path="url(#p7bfe65d4e2)">
     <use xlink:href="#m12fd798c44" x="0" y="216" style="fill: #fc8d62; stroke: #808080"/>
    </g>
   </g>
   <g id="BrokenBarHCollection_11">
    <defs>
     <path id="m3a000c63ae" d="M 71.740206 -170.3208 
L 71.740206 -184.275709 
L 183.563711 -184.275709 
L 183.563711 -170.3208 
L 71.740206 -170.3208 
z
" style="stroke: #808080"/>
    </defs>
    <g clip-path="url(#p7bfe65d4e2)">
     <use xlink:href="#m3a000c63ae" x="0" y="216" style="fill: #8da0cb; stroke: #808080"/>
    </g>
   </g>
   <g id="BrokenBarHCollection_12">
    <defs>
     <path id="ma679bf1666" d="M 183.563711 -170.3208 
L 183.563711 -184.275709 
L 264.889897 -184.275709 
L 264.889897 -170.3208 
L 183.563711 -170.3208 
z
" style="stroke: #808080"/>
    </defs>
    <g clip-path="url(#p7bfe65d4e2)">
     <use xlink:href="#ma679bf1666" x="0" y="216" style="fill: #8da0cb; stroke: #808080"/>
    </g>
   </g>
   <g id="BrokenBarHCollection_13">
    <defs>
     <path id="m0cd435fb2f" d="M 386.879175 -148.851709 
L 386.879175 -162.806618 
L 529.2 -162.806618 
L 529.2 -148.851709 
L 386.879175 -148.851709 
z
" style="stroke: #808080"/>
    </defs>
    <g clip-path="url(#p7bfe65d4e2)">
     <use xlink:href="#m0cd435fb2f" x="0" y="216" style="fill: #8da0cb; stroke: #808080"/>
    </g>
   </g>
   <g id="BrokenBarHCollection_14">
    <defs>
     <path id="m278e4e27c8" d="M 188.646598 -105.913527 
L 188.646598 -119.868436 
L 351.298969 -119.868436 
L 351.298969 -105.913527 
L 188.646598 -105.913527 
z
" style="stroke: #808080"/>
    </defs>
    <g clip-path="url(#p7bfe65d4e2)">
     <use xlink:href="#m278e4e27c8" x="0" y="216" style="fill: #e78ac3; stroke: #808080"/>
    </g>
   </g>
   <g id="BrokenBarHCollection_15">
    <defs>
     <path id="m41ce10703b" d="M 351.298969 -105.913527 
L 351.298969 -119.868436 
L 513.95134 -119.868436 
L 513.95134 -105.913527 
L 351.298969 -105.913527 
z
" style="stroke: #808080"/>
    </defs>
    <g clip-path="url(#p7bfe65d4e2)">
     <use xlink:href="#m41ce10703b" x="0" y="216" style="fill: #e78ac3; stroke: #808080"/>
    </g>
   </g>
   <g id="BrokenBarHCollection_16">
    <defs>
     <path id="m8327082045" d="M 127.651959 -127.382618 
L 127.651959 -141.337527 
L 219.143918 -141.337527 
L 219.143918 -127.382618 
L 127.651959 -127.382618 
z
" style="stroke: #808080"/>
    </defs>
    <g clip-path="url(#p7bfe65d4e2)">
     <use xlink:href="#m8327082045" x="0" y="216" style="fill: #a6d854; stroke: #808080"/>
    </g>
   </g>
   <g id="BrokenBarHCollection_17">
    <defs>
     <path id="m1f50076270" d="M 244.558351 -148.851709 
L 244.558351 -162.806618 
L 386.879175 -162.806618 
L 386.879175 -148.851709 
L 244.558351 -148.851709 
z
" style="stroke: #808080"/>
    </defs>
    <g clip-path="url(#p7bfe65d4e2)">
     <use xlink:href="#m1f50076270" x="0" y="216" style="fill: #a6d854; stroke: #808080"/>
    </g>
   </g>
   <g id="BrokenBarHCollection_18">
    <defs>
     <path id="mf89abe0ff9" d="M 36.16 -44.189891 
L 36.16 -52.777527 
L 61.574433 -52.777527 
L 61.574433 -44.189891 
L 36.16 -44.189891 
z
" style="stroke: #808080"/>
    </defs>
    <g clip-path="url(#p7bfe65d4e2)">
     <use xlink:href="#mf89abe0ff9" x="0" y="216" style="fill: #fc8d62; stroke: #808080"/>
    </g>
   </g>
   <g id="BrokenBarHCollection_19">
    <defs>
     <path id="me07555765e" d="M 61.574433 -44.189891 
L 61.574433 -52.777527 
L 92.071753 -52.777527 
L 92.071753 -44.189891 
L 61.574433 -44.189891 
z
" style="stroke: #808080"/>
    </defs>
    <g clip-path="url(#p7bfe65d4e2)">
     <use xlink:href="#me07555765e" x="0" y="216" style="fill: #ffffff; stroke: #808080"/>
    </g>
   </g>
   <g id="BrokenBarHCollection_20">
    <defs>
     <path id="mffde1589e7" d="M 92.071753 -44.189891 
L 92.071753 -52.777527 
L 102.237526 -52.777527 
L 102.237526 -44.189891 
L 92.071753 -44.189891 
z
" style="stroke: #808080"/>
    </defs>
    <g clip-path="url(#p7bfe65d4e2)">
     <use xlink:href="#mffde1589e7" x="0" y="216" style="fill: #66c2a5; stroke: #808080"/>
    </g>
   </g>
   <g id="BrokenBarHCollection_21">
    <defs>
     <path id="m080879bff8" d="M 183.563711 -44.189891 
L 183.563711 -52.777527 
L 193.729485 -52.777527 
L 193.729485 -44.189891 
L 183.563711 -44.189891 
z
" style="stroke: #808080"/>
    </defs>
    <g clip-path="url(#p7bfe65d4e2)">
     <use xlink:href="#m080879bff8" x="0" y="216" style="fill: #66c2a5; stroke: #808080"/>
    </g>
   </g>
   <g id="BrokenBarHCollection_22">
    <defs>
     <path id="m6dab23a4ef" d="M 224.226804 -44.189891 
L 224.226804 -52.777527 
L 244.558351 -52.777527 
L 244.558351 -44.189891 
L 224.226804 -44.189891 
z
" style="stroke: #808080"/>
    </defs>
    <g clip-path="url(#p7bfe65d4e2)">
     <use xlink:href="#m6dab23a4ef" x="0" y="216" style="fill: #ffffff; stroke: #808080"/>
    </g>
   </g>
   <g id="BrokenBarHCollection_23">
    <defs>
     <path id="m49a75ebce8" d="M 244.558351 -44.189891 
L 244.558351 -52.777527 
L 259.80701 -52.777527 
L 259.80701 -44.189891 
L 244.558351 -44.189891 
z
" style="stroke: #808080"/>
    </defs>
    <g clip-path="url(#p7bfe65d4e2)">
     <use xlink:href="#m49a75ebce8" x="0" y="216" style="fill: #fc8d62; stroke: #808080"/>
    </g>
   </g>
   <g id="BrokenBarHCollection_24">
    <path d="M 264.889897 150.341018 
L 264.889897 141.753382 
L 280.138557 141.753382 
L 280.138557 150.341018 
L 264.889897 150.341018 
z
" clip-path="url(#p7bfe65d4e2)" style="fill: #8da0cb; stroke-dasharray: 3.7,1.6; stroke-dashoffset: 0; stroke: #808080"/>
   </g>
   <g id="BrokenBarHCollection_25">
    <path d="M 249.641237 150.341018 
L 249.641237 141.753382 
L 264.889897 141.753382 
L 264.889897 150.341018 
L 249.641237 150.341018 
z
" clip-path="url(#p7bfe65d4e2)" style="fill: #ffffff; stroke-dasharray: 3.7,1.6; stroke-dashoffset: 0; stroke: #808080"/>
   </g>
   <g id="BrokenBarHCollection_26">
    <path d="M 219.143918 150.341018 
L 219.143918 141.753382 
L 239.475464 141.753382 
L 239.475464 150.341018 
L 219.143918 150.341018 
z
" clip-path="url(#p7bfe65d4e2)" style="fill: #a6d854; stroke-dasharray: 3.7,1.6; stroke-dashoffset: 0; stroke: #808080"/>
   </g>
   <g id="BrokenBarHCollection_27">
    <path d="M 127.651959 150.341018 
L 127.651959 141.753382 
L 178.480825 141.753382 
L 178.480825 150.341018 
L 127.651959 150.341018 
z
" clip-path="url(#p7bfe65d4e2)" style="fill: #ffffff; stroke-dasharray: 3.7,1.6; stroke-dashoffset: 0; stroke: #808080"/>
   </g>
   <g id="BrokenBarHCollection_28">
    <path d="M 178.480825 150.341018 
L 178.480825 141.753382 
L 188.646598 141.753382 
L 188.646598 150.341018 
L 178.480825 150.341018 
z
" clip-path="url(#p7bfe65d4e2)" style="fill: #e78ac3; stroke-dasharray: 3.7,1.6; stroke-dashoffset: 0; stroke: #808080"/>
   </g>
   <g id="BrokenBarHCollection_29">
    <path d="M 107.320412 150.341018 
L 107.320412 141.753382 
L 127.651959 141.753382 
L 127.651959 150.341018 
L 107.320412 150.341018 
z
" clip-path="url(#p7bfe65d4e2)" style="fill: #a6d854; stroke-dasharray: 3.7,1.6; stroke-dashoffset: 0; stroke: #808080"/>
   </g>
   <g id="BrokenBarHCollection_30">
    <path d="M 71.740206 150.341018 
L 71.740206 141.753382 
L 107.320412 141.753382 
L 107.320412 150.341018 
L 71.740206 150.341018 
z
" clip-path="url(#p7bfe65d4e2)" style="fill: #ffffff; stroke-dasharray: 3.7,1.6; stroke-dashoffset: 0; stroke: #808080"/>
   </g>
   <g id="BrokenBarHCollection_31">
    <path d="M 36.16 150.341018 
L 36.16 141.753382 
L 71.740206 141.753382 
L 71.740206 150.341018 
L 36.16 150.341018 
z
" clip-path="url(#p7bfe65d4e2)" style="fill: #8da0cb; stroke-dasharray: 3.7,1.6; stroke-dashoffset: 0; stroke: #808080"/>
   </g>
   <g id="BrokenBarHCollection_32">
    <path d="M 208.978144 150.341018 
L 208.978144 141.753382 
L 219.143918 141.753382 
L 219.143918 150.341018 
L 208.978144 150.341018 
z
" clip-path="url(#p7bfe65d4e2)" style="fill: #ffffff; stroke-dasharray: 3.7,1.6; stroke-dashoffset: 0; stroke: #808080"/>
   </g>
   <g id="matplotlib.axis_1">
    <g id="xtick_1">
     <g id="line2d_1">
      <defs>
       <path id="mad61680a0f" d="M 0 0 
L 0 3.5 
" style="stroke: #000000; stroke-width: 0.8"/>
      </defs>
      <g>
       <use xlink:href="#mad61680a0f" x="36.16" y="178.8144" style="stroke: #000000; stroke-width: 0.8"/>
      </g>
     </g>
     <g id="text_1">
      <!-- 0 -->
      <g transform="translate(34.25125 190.373462) scale(0.06 -0.06)">
       <defs>
        <path id="DejaVuSans-30" d="M 2034 4250 
Q 1547 4250 1301 3770 
Q 1056 3291 1056 2328 
Q 1056 1369 1301 889 
Q 1547 409 2034 409 
Q 2525 409 2770 889 
Q 3016 1369 3016 2328 
Q 3016 3291 2770 3770 
Q 2525 4250 2034 4250 
z
M 2034 4750 
Q 2819 4750 3233 4129 
Q 3647 3509 3647 2328 
Q 3647 1150 3233 529 
Q 2819 -91 2034 -91 
Q 1250 -91 836 529 
Q 422 1150 422 2328 
Q 422 3509 836 4129 
Q 1250 4750 2034 4750 
z
" transform="scale(0.015625)"/>
       </defs>
       <use xlink:href="#DejaVuSans-30"/>
      </g>
     </g>
    </g>
    <g id="xtick_2">
     <g id="line2d_2">
      <g>
       <use xlink:href="#mad61680a0f" x="61.574433" y="178.8144" style="stroke: #000000; stroke-width: 0.8"/>
      </g>
     </g>
     <g id="text_2">
      <!-- 5 -->
      <g transform="translate(59.665683 190.373462) scale(0.06 -0.06)">
       <defs>
        <path id="DejaVuSans-35" d="M 691 4666 
L 3169 4666 
L 3169 4134 
L 1269 4134 
L 1269 2991 
Q 1406 3038 1543 3061 
Q 1681 3084 1819 3084 
Q 2600 3084 3056 2656 
Q 3513 2228 3513 1497 
Q 3513 744 3044 326 
Q 2575 -91 1722 -91 
Q 1428 -91 1123 -41 
Q 819 9 494 109 
L 494 744 
Q 775 591 1075 516 
Q 1375 441 1709 441 
Q 2250 441 2565 725 
Q 2881 1009 2881 1497 
Q 2881 1984 2565 2268 
Q 2250 2553 1709 2553 
Q 1456 2553 1204 2497 
Q 953 2441 691 2322 
L 691 4666 
z
" transform="scale(0.015625)"/>
       </defs>
       <use xlink:href="#DejaVuSans-35"/>
      </g>
     </g>
    </g>
    <g id="xtick_3">
     <g id="line2d_3">
      <g>
       <use xlink:href="#mad61680a0f" x="86.988866" y="178.8144" style="stroke: #000000; stroke-width: 0.8"/>
      </g>
     </g>
     <g id="text_3">
      <!-- 10 -->
      <g transform="translate(83.171366 190.373462) scale(0.06 -0.06)">
       <defs>
        <path id="DejaVuSans-31" d="M 794 531 
L 1825 531 
L 1825 4091 
L 703 3866 
L 703 4441 
L 1819 4666 
L 2450 4666 
L 2450 531 
L 3481 531 
L 3481 0 
L 794 0 
L 794 531 
z
" transform="scale(0.015625)"/>
       </defs>
       <use xlink:href="#DejaVuSans-31"/>
       <use xlink:href="#DejaVuSans-30" x="63.623047"/>
      </g>
     </g>
    </g>
    <g id="xtick_4">
     <g id="line2d_4">
      <g>
       <use xlink:href="#mad61680a0f" x="112.403299" y="178.8144" style="stroke: #000000; stroke-width: 0.8"/>
      </g>
     </g>
     <g id="text_4">
      <!-- 15 -->
      <g transform="translate(108.585799 190.373462) scale(0.06 -0.06)">
       <use xlink:href="#DejaVuSans-31"/>
       <use xlink:href="#DejaVuSans-35" x="63.623047"/>
      </g>
     </g>
    </g>
    <g id="xtick_5">
     <g id="line2d_5">
      <g>
       <use xlink:href="#mad61680a0f" x="137.817732" y="178.8144" style="stroke: #000000; stroke-width: 0.8"/>
      </g>
     </g>
     <g id="text_5">
      <!-- 20 -->
      <g transform="translate(134.000232 190.373462) scale(0.06 -0.06)">
       <defs>
        <path id="DejaVuSans-32" d="M 1228 531 
L 3431 531 
L 3431 0 
L 469 0 
L 469 531 
Q 828 903 1448 1529 
Q 2069 2156 2228 2338 
Q 2531 2678 2651 2914 
Q 2772 3150 2772 3378 
Q 2772 3750 2511 3984 
Q 2250 4219 1831 4219 
Q 1534 4219 1204 4116 
Q 875 4013 500 3803 
L 500 4441 
Q 881 4594 1212 4672 
Q 1544 4750 1819 4750 
Q 2544 4750 2975 4387 
Q 3406 4025 3406 3419 
Q 3406 3131 3298 2873 
Q 3191 2616 2906 2266 
Q 2828 2175 2409 1742 
Q 1991 1309 1228 531 
z
" transform="scale(0.015625)"/>
       </defs>
       <use xlink:href="#DejaVuSans-32"/>
       <use xlink:href="#DejaVuSans-30" x="63.623047"/>
      </g>
     </g>
    </g>
    <g id="xtick_6">
     <g id="line2d_6">
      <g>
       <use xlink:href="#mad61680a0f" x="163.232165" y="178.8144" style="stroke: #000000; stroke-width: 0.8"/>
      </g>
     </g>
     <g id="text_6">
      <!-- 25 -->
      <g transform="translate(159.414665 190.373462) scale(0.06 -0.06)">
       <use xlink:href="#DejaVuSans-32"/>
       <use xlink:href="#DejaVuSans-35" x="63.623047"/>
      </g>
     </g>
    </g>
    <g id="xtick_7">
     <g id="line2d_7">
      <g>
       <use xlink:href="#mad61680a0f" x="188.646598" y="178.8144" style="stroke: #000000; stroke-width: 0.8"/>
      </g>
     </g>
     <g id="text_7">
      <!-- 30 -->
      <g transform="translate(184.829098 190.373462) scale(0.06 -0.06)">
       <defs>
        <path id="DejaVuSans-33" d="M 2597 2516 
Q 3050 2419 3304 2112 
Q 3559 1806 3559 1356 
Q 3559 666 3084 287 
Q 2609 -91 1734 -91 
Q 1441 -91 1130 -33 
Q 819 25 488 141 
L 488 750 
Q 750 597 1062 519 
Q 1375 441 1716 441 
Q 2309 441 2620 675 
Q 2931 909 2931 1356 
Q 2931 1769 2642 2001 
Q 2353 2234 1838 2234 
L 1294 2234 
L 1294 2753 
L 1863 2753 
Q 2328 2753 2575 2939 
Q 2822 3125 2822 3475 
Q 2822 3834 2567 4026 
Q 2313 4219 1838 4219 
Q 1578 4219 1281 4162 
Q 984 4106 628 3988 
L 628 4550 
Q 988 4650 1302 4700 
Q 1616 4750 1894 4750 
Q 2613 4750 3031 4423 
Q 3450 4097 3450 3541 
Q 3450 3153 3228 2886 
Q 3006 2619 2597 2516 
z
" transform="scale(0.015625)"/>
       </defs>
       <use xlink:href="#DejaVuSans-33"/>
       <use xlink:href="#DejaVuSans-30" x="63.623047"/>
      </g>
     </g>
    </g>
    <g id="xtick_8">
     <g id="line2d_8">
      <g>
       <use xlink:href="#mad61680a0f" x="214.061031" y="178.8144" style="stroke: #000000; stroke-width: 0.8"/>
      </g>
     </g>
     <g id="text_8">
      <!-- 35 -->
      <g transform="translate(210.243531 190.373462) scale(0.06 -0.06)">
       <use xlink:href="#DejaVuSans-33"/>
       <use xlink:href="#DejaVuSans-35" x="63.623047"/>
      </g>
     </g>
    </g>
    <g id="xtick_9">
     <g id="line2d_9">
      <g>
       <use xlink:href="#mad61680a0f" x="239.475464" y="178.8144" style="stroke: #000000; stroke-width: 0.8"/>
      </g>
     </g>
     <g id="text_9">
      <!-- 40 -->
      <g transform="translate(235.657964 190.373462) scale(0.06 -0.06)">
       <defs>
        <path id="DejaVuSans-34" d="M 2419 4116 
L 825 1625 
L 2419 1625 
L 2419 4116 
z
M 2253 4666 
L 3047 4666 
L 3047 1625 
L 3713 1625 
L 3713 1100 
L 3047 1100 
L 3047 0 
L 2419 0 
L 2419 1100 
L 313 1100 
L 313 1709 
L 2253 4666 
z
" transform="scale(0.015625)"/>
       </defs>
       <use xlink:href="#DejaVuSans-34"/>
       <use xlink:href="#DejaVuSans-30" x="63.623047"/>
      </g>
     </g>
    </g>
    <g id="xtick_10">
     <g id="line2d_10">
      <g>
       <use xlink:href="#mad61680a0f" x="264.889897" y="178.8144" style="stroke: #000000; stroke-width: 0.8"/>
      </g>
     </g>
     <g id="text_10">
      <!-- 45 -->
      <g transform="translate(261.072397 190.373462) scale(0.06 -0.06)">
       <use xlink:href="#DejaVuSans-34"/>
       <use xlink:href="#DejaVuSans-35" x="63.623047"/>
      </g>
     </g>
    </g>
    <g id="xtick_11">
     <g id="line2d_11">
      <g>
       <use xlink:href="#mad61680a0f" x="290.30433" y="178.8144" style="stroke: #000000; stroke-width: 0.8"/>
      </g>
     </g>
     <g id="text_11">
      <!-- 50 -->
      <g transform="translate(286.48683 190.373462) scale(0.06 -0.06)">
       <use xlink:href="#DejaVuSans-35"/>
       <use xlink:href="#DejaVuSans-30" x="63.623047"/>
      </g>
     </g>
    </g>
    <g id="xtick_12">
     <g id="line2d_12">
      <g>
       <use xlink:href="#mad61680a0f" x="315.718763" y="178.8144" style="stroke: #000000; stroke-width: 0.8"/>
      </g>
     </g>
     <g id="text_12">
      <!-- 55 -->
      <g transform="translate(311.901263 190.373462) scale(0.06 -0.06)">
       <use xlink:href="#DejaVuSans-35"/>
       <use xlink:href="#DejaVuSans-35" x="63.623047"/>
      </g>
     </g>
    </g>
    <g id="xtick_13">
     <g id="line2d_13">
      <g>
       <use xlink:href="#mad61680a0f" x="341.133196" y="178.8144" style="stroke: #000000; stroke-width: 0.8"/>
      </g>
     </g>
     <g id="text_13">
      <!-- 60 -->
      <g transform="translate(337.315696 190.373462) scale(0.06 -0.06)">
       <defs>
        <path id="DejaVuSans-36" d="M 2113 2584 
Q 1688 2584 1439 2293 
Q 1191 2003 1191 1497 
Q 1191 994 1439 701 
Q 1688 409 2113 409 
Q 2538 409 2786 701 
Q 3034 994 3034 1497 
Q 3034 2003 2786 2293 
Q 2538 2584 2113 2584 
z
M 3366 4563 
L 3366 3988 
Q 3128 4100 2886 4159 
Q 2644 4219 2406 4219 
Q 1781 4219 1451 3797 
Q 1122 3375 1075 2522 
Q 1259 2794 1537 2939 
Q 1816 3084 2150 3084 
Q 2853 3084 3261 2657 
Q 3669 2231 3669 1497 
Q 3669 778 3244 343 
Q 2819 -91 2113 -91 
Q 1303 -91 875 529 
Q 447 1150 447 2328 
Q 447 3434 972 4092 
Q 1497 4750 2381 4750 
Q 2619 4750 2861 4703 
Q 3103 4656 3366 4563 
z
" transform="scale(0.015625)"/>
       </defs>
       <use xlink:href="#DejaVuSans-36"/>
       <use xlink:href="#DejaVuSans-30" x="63.623047"/>
      </g>
     </g>
    </g>
    <g id="xtick_14">
     <g id="line2d_14">
      <g>
       <use xlink:href="#mad61680a0f" x="366.547629" y="178.8144" style="stroke: #000000; stroke-width: 0.8"/>
      </g>
     </g>
     <g id="text_14">
      <!-- 65 -->
      <g transform="translate(362.730129 190.373462) scale(0.06 -0.06)">
       <use xlink:href="#DejaVuSans-36"/>
       <use xlink:href="#DejaVuSans-35" x="63.623047"/>
      </g>
     </g>
    </g>
    <g id="xtick_15">
     <g id="line2d_15">
      <g>
       <use xlink:href="#mad61680a0f" x="391.962062" y="178.8144" style="stroke: #000000; stroke-width: 0.8"/>
      </g>
     </g>
     <g id="text_15">
      <!-- 70 -->
      <g transform="translate(388.144562 190.373462) scale(0.06 -0.06)">
       <defs>
        <path id="DejaVuSans-37" d="M 525 4666 
L 3525 4666 
L 3525 4397 
L 1831 0 
L 1172 0 
L 2766 4134 
L 525 4134 
L 525 4666 
z
" transform="scale(0.015625)"/>
       </defs>
       <use xlink:href="#DejaVuSans-37"/>
       <use xlink:href="#DejaVuSans-30" x="63.623047"/>
      </g>
     </g>
    </g>
    <g id="xtick_16">
     <g id="line2d_16">
      <g>
       <use xlink:href="#mad61680a0f" x="417.376495" y="178.8144" style="stroke: #000000; stroke-width: 0.8"/>
      </g>
     </g>
     <g id="text_16">
      <!-- 75 -->
      <g transform="translate(413.558995 190.373462) scale(0.06 -0.06)">
       <use xlink:href="#DejaVuSans-37"/>
       <use xlink:href="#DejaVuSans-35" x="63.623047"/>
      </g>
     </g>
    </g>
    <g id="xtick_17">
     <g id="line2d_17">
      <g>
       <use xlink:href="#mad61680a0f" x="442.790928" y="178.8144" style="stroke: #000000; stroke-width: 0.8"/>
      </g>
     </g>
     <g id="text_17">
      <!-- 80 -->
      <g transform="translate(438.973428 190.373462) scale(0.06 -0.06)">
       <defs>
        <path id="DejaVuSans-38" d="M 2034 2216 
Q 1584 2216 1326 1975 
Q 1069 1734 1069 1313 
Q 1069 891 1326 650 
Q 1584 409 2034 409 
Q 2484 409 2743 651 
Q 3003 894 3003 1313 
Q 3003 1734 2745 1975 
Q 2488 2216 2034 2216 
z
M 1403 2484 
Q 997 2584 770 2862 
Q 544 3141 544 3541 
Q 544 4100 942 4425 
Q 1341 4750 2034 4750 
Q 2731 4750 3128 4425 
Q 3525 4100 3525 3541 
Q 3525 3141 3298 2862 
Q 3072 2584 2669 2484 
Q 3125 2378 3379 2068 
Q 3634 1759 3634 1313 
Q 3634 634 3220 271 
Q 2806 -91 2034 -91 
Q 1263 -91 848 271 
Q 434 634 434 1313 
Q 434 1759 690 2068 
Q 947 2378 1403 2484 
z
M 1172 3481 
Q 1172 3119 1398 2916 
Q 1625 2713 2034 2713 
Q 2441 2713 2670 2916 
Q 2900 3119 2900 3481 
Q 2900 3844 2670 4047 
Q 2441 4250 2034 4250 
Q 1625 4250 1398 4047 
Q 1172 3844 1172 3481 
z
" transform="scale(0.015625)"/>
       </defs>
       <use xlink:href="#DejaVuSans-38"/>
       <use xlink:href="#DejaVuSans-30" x="63.623047"/>
      </g>
     </g>
    </g>
    <g id="xtick_18">
     <g id="line2d_18">
      <g>
       <use xlink:href="#mad61680a0f" x="468.205361" y="178.8144" style="stroke: #000000; stroke-width: 0.8"/>
      </g>
     </g>
     <g id="text_18">
      <!-- 85 -->
      <g transform="translate(464.387861 190.373462) scale(0.06 -0.06)">
       <use xlink:href="#DejaVuSans-38"/>
       <use xlink:href="#DejaVuSans-35" x="63.623047"/>
      </g>
     </g>
    </g>
    <g id="xtick_19">
     <g id="line2d_19">
      <g>
       <use xlink:href="#mad61680a0f" x="493.619794" y="178.8144" style="stroke: #000000; stroke-width: 0.8"/>
      </g>
     </g>
     <g id="text_19">
      <!-- 90 -->
      <g transform="translate(489.802294 190.373462) scale(0.06 -0.06)">
       <defs>
        <path id="DejaVuSans-39" d="M 703 97 
L 703 672 
Q 941 559 1184 500 
Q 1428 441 1663 441 
Q 2288 441 2617 861 
Q 2947 1281 2994 2138 
Q 2813 1869 2534 1725 
Q 2256 1581 1919 1581 
Q 1219 1581 811 2004 
Q 403 2428 403 3163 
Q 403 3881 828 4315 
Q 1253 4750 1959 4750 
Q 2769 4750 3195 4129 
Q 3622 3509 3622 2328 
Q 3622 1225 3098 567 
Q 2575 -91 1691 -91 
Q 1453 -91 1209 -44 
Q 966 3 703 97 
z
M 1959 2075 
Q 2384 2075 2632 2365 
Q 2881 2656 2881 3163 
Q 2881 3666 2632 3958 
Q 2384 4250 1959 4250 
Q 1534 4250 1286 3958 
Q 1038 3666 1038 3163 
Q 1038 2656 1286 2365 
Q 1534 2075 1959 2075 
z
" transform="scale(0.015625)"/>
       </defs>
       <use xlink:href="#DejaVuSans-39"/>
       <use xlink:href="#DejaVuSans-30" x="63.623047"/>
      </g>
     </g>
    </g>
    <g id="xtick_20">
     <g id="line2d_20">
      <g>
       <use xlink:href="#mad61680a0f" x="519.034227" y="178.8144" style="stroke: #000000; stroke-width: 0.8"/>
      </g>
     </g>
     <g id="text_20">
      <!-- 95 -->
      <g transform="translate(515.216727 190.373462) scale(0.06 -0.06)">
       <use xlink:href="#DejaVuSans-39"/>
       <use xlink:href="#DejaVuSans-35" x="63.623047"/>
      </g>
     </g>
    </g>
   </g>
   <g id="matplotlib.axis_2">
    <g id="ytick_1">
     <g id="line2d_21">
      <defs>
       <path id="m8e7fabc901" d="M 0 0 
L -3.5 0 
" style="stroke: #000000; stroke-width: 0.8"/>
      </defs>
      <g>
       <use xlink:href="#m8e7fabc901" x="36.16" y="167.516291" style="stroke: #000000; stroke-width: 0.8"/>
      </g>
     </g>
     <g id="text_21">
      <!-- Agv1 -->
      <g transform="translate(13.877813 169.795822) scale(0.06 -0.06)">
       <defs>
        <path id="DejaVuSans-41" d="M 2188 4044 
L 1331 1722 
L 3047 1722 
L 2188 4044 
z
M 1831 4666 
L 2547 4666 
L 4325 0 
L 3669 0 
L 3244 1197 
L 1141 1197 
L 716 0 
L 50 0 
L 1831 4666 
z
" transform="scale(0.015625)"/>
        <path id="DejaVuSans-67" d="M 2906 1791 
Q 2906 2416 2648 2759 
Q 2391 3103 1925 3103 
Q 1463 3103 1205 2759 
Q 947 2416 947 1791 
Q 947 1169 1205 825 
Q 1463 481 1925 481 
Q 2391 481 2648 825 
Q 2906 1169 2906 1791 
z
M 3481 434 
Q 3481 -459 3084 -895 
Q 2688 -1331 1869 -1331 
Q 1566 -1331 1297 -1286 
Q 1028 -1241 775 -1147 
L 775 -588 
Q 1028 -725 1275 -790 
Q 1522 -856 1778 -856 
Q 2344 -856 2625 -561 
Q 2906 -266 2906 331 
L 2906 616 
Q 2728 306 2450 153 
Q 2172 0 1784 0 
Q 1141 0 747 490 
Q 353 981 353 1791 
Q 353 2603 747 3093 
Q 1141 3584 1784 3584 
Q 2172 3584 2450 3431 
Q 2728 3278 2906 2969 
L 2906 3500 
L 3481 3500 
L 3481 434 
z
" transform="scale(0.015625)"/>
        <path id="DejaVuSans-76" d="M 191 3500 
L 800 3500 
L 1894 563 
L 2988 3500 
L 3597 3500 
L 2284 0 
L 1503 0 
L 191 3500 
z
" transform="scale(0.015625)"/>
       </defs>
       <use xlink:href="#DejaVuSans-41"/>
       <use xlink:href="#DejaVuSans-67" x="68.408203"/>
       <use xlink:href="#DejaVuSans-76" x="131.884766"/>
       <use xlink:href="#DejaVuSans-31" x="191.064453"/>
      </g>
     </g>
    </g>
    <g id="ytick_2">
     <g id="line2d_22">
      <g>
       <use xlink:href="#m8e7fabc901" x="36.16" y="146.0472" style="stroke: #000000; stroke-width: 0.8"/>
      </g>
     </g>
     <g id="text_22">
      <!-- Agv2 -->
      <g transform="translate(13.877813 148.326731) scale(0.06 -0.06)">
       <use xlink:href="#DejaVuSans-41"/>
       <use xlink:href="#DejaVuSans-67" x="68.408203"/>
       <use xlink:href="#DejaVuSans-76" x="131.884766"/>
       <use xlink:href="#DejaVuSans-32" x="191.064453"/>
      </g>
     </g>
    </g>
    <g id="ytick_3">
     <g id="line2d_23">
      <g>
       <use xlink:href="#m8e7fabc901" x="36.16" y="124.578109" style="stroke: #000000; stroke-width: 0.8"/>
      </g>
     </g>
     <g id="text_23">
      <!-- Depot -->
      <g transform="translate(11.015625 126.85764) scale(0.06 -0.06)">
       <defs>
        <path id="DejaVuSans-44" d="M 1259 4147 
L 1259 519 
L 2022 519 
Q 2988 519 3436 956 
Q 3884 1394 3884 2338 
Q 3884 3275 3436 3711 
Q 2988 4147 2022 4147 
L 1259 4147 
z
M 628 4666 
L 1925 4666 
Q 3281 4666 3915 4102 
Q 4550 3538 4550 2338 
Q 4550 1131 3912 565 
Q 3275 0 1925 0 
L 628 0 
L 628 4666 
z
" transform="scale(0.015625)"/>
        <path id="DejaVuSans-65" d="M 3597 1894 
L 3597 1613 
L 953 1613 
Q 991 1019 1311 708 
Q 1631 397 2203 397 
Q 2534 397 2845 478 
Q 3156 559 3463 722 
L 3463 178 
Q 3153 47 2828 -22 
Q 2503 -91 2169 -91 
Q 1331 -91 842 396 
Q 353 884 353 1716 
Q 353 2575 817 3079 
Q 1281 3584 2069 3584 
Q 2775 3584 3186 3129 
Q 3597 2675 3597 1894 
z
M 3022 2063 
Q 3016 2534 2758 2815 
Q 2500 3097 2075 3097 
Q 1594 3097 1305 2825 
Q 1016 2553 972 2059 
L 3022 2063 
z
" transform="scale(0.015625)"/>
        <path id="DejaVuSans-70" d="M 1159 525 
L 1159 -1331 
L 581 -1331 
L 581 3500 
L 1159 3500 
L 1159 2969 
Q 1341 3281 1617 3432 
Q 1894 3584 2278 3584 
Q 2916 3584 3314 3078 
Q 3713 2572 3713 1747 
Q 3713 922 3314 415 
Q 2916 -91 2278 -91 
Q 1894 -91 1617 61 
Q 1341 213 1159 525 
z
M 3116 1747 
Q 3116 2381 2855 2742 
Q 2594 3103 2138 3103 
Q 1681 3103 1420 2742 
Q 1159 2381 1159 1747 
Q 1159 1113 1420 752 
Q 1681 391 2138 391 
Q 2594 391 2855 752 
Q 3116 1113 3116 1747 
z
" transform="scale(0.015625)"/>
        <path id="DejaVuSans-6f" d="M 1959 3097 
Q 1497 3097 1228 2736 
Q 959 2375 959 1747 
Q 959 1119 1226 758 
Q 1494 397 1959 397 
Q 2419 397 2687 759 
Q 2956 1122 2956 1747 
Q 2956 2369 2687 2733 
Q 2419 3097 1959 3097 
z
M 1959 3584 
Q 2709 3584 3137 3096 
Q 3566 2609 3566 1747 
Q 3566 888 3137 398 
Q 2709 -91 1959 -91 
Q 1206 -91 779 398 
Q 353 888 353 1747 
Q 353 2609 779 3096 
Q 1206 3584 1959 3584 
z
" transform="scale(0.015625)"/>
        <path id="DejaVuSans-74" d="M 1172 4494 
L 1172 3500 
L 2356 3500 
L 2356 3053 
L 1172 3053 
L 1172 1153 
Q 1172 725 1289 603 
Q 1406 481 1766 481 
L 2356 481 
L 2356 0 
L 1766 0 
Q 1100 0 847 248 
Q 594 497 594 1153 
L 594 3053 
L 172 3053 
L 172 3500 
L 594 3500 
L 594 4494 
L 1172 4494 
z
" transform="scale(0.015625)"/>
       </defs>
       <use xlink:href="#DejaVuSans-44"/>
       <use xlink:href="#DejaVuSans-65" x="77.001953"/>
       <use xlink:href="#DejaVuSans-70" x="138.525391"/>
       <use xlink:href="#DejaVuSans-6f" x="202.001953"/>
       <use xlink:href="#DejaVuSans-74" x="263.183594"/>
      </g>
     </g>
    </g>
    <g id="ytick_4">
     <g id="line2d_24">
      <g>
       <use xlink:href="#m8e7fabc901" x="36.16" y="103.109018" style="stroke: #000000; stroke-width: 0.8"/>
      </g>
     </g>
     <g id="text_24">
      <!-- $m_{1}$ -->
      <g transform="translate(20.46 105.388549) scale(0.06 -0.06)">
       <defs>
        <path id="DejaVuSans-Oblique-6d" d="M 5747 2113 
L 5338 0 
L 4763 0 
L 5166 2094 
Q 5191 2228 5203 2325 
Q 5216 2422 5216 2491 
Q 5216 2772 5059 2928 
Q 4903 3084 4622 3084 
Q 4203 3084 3875 2770 
Q 3547 2456 3450 1953 
L 3066 0 
L 2491 0 
L 2900 2094 
Q 2925 2209 2937 2307 
Q 2950 2406 2950 2484 
Q 2950 2769 2794 2926 
Q 2638 3084 2363 3084 
Q 1938 3084 1609 2770 
Q 1281 2456 1184 1953 
L 800 0 
L 225 0 
L 909 3500 
L 1484 3500 
L 1375 2956 
Q 1609 3263 1923 3423 
Q 2238 3584 2597 3584 
Q 2978 3584 3223 3384 
Q 3469 3184 3519 2828 
Q 3781 3197 4126 3390 
Q 4472 3584 4856 3584 
Q 5306 3584 5551 3325 
Q 5797 3066 5797 2591 
Q 5797 2488 5784 2364 
Q 5772 2241 5747 2113 
z
" transform="scale(0.015625)"/>
       </defs>
       <use xlink:href="#DejaVuSans-Oblique-6d"/>
       <use xlink:href="#DejaVuSans-31" transform="translate(97.412109 -16.40625) scale(0.7)"/>
      </g>
     </g>
    </g>
    <g id="ytick_5">
     <g id="line2d_25">
      <g>
       <use xlink:href="#m8e7fabc901" x="36.16" y="81.639927" style="stroke: #000000; stroke-width: 0.8"/>
      </g>
     </g>
     <g id="text_25">
      <!-- $m_{2}$ -->
      <g transform="translate(20.46 83.919459) scale(0.06 -0.06)">
       <use xlink:href="#DejaVuSans-Oblique-6d"/>
       <use xlink:href="#DejaVuSans-32" transform="translate(97.412109 -16.40625) scale(0.7)"/>
      </g>
     </g>
    </g>
    <g id="ytick_6">
     <g id="line2d_26">
      <g>
       <use xlink:href="#m8e7fabc901" x="36.16" y="60.170836" style="stroke: #000000; stroke-width: 0.8"/>
      </g>
     </g>
     <g id="text_26">
      <!-- $m_{3}$ -->
      <g transform="translate(20.46 62.450368) scale(0.06 -0.06)">
       <use xlink:href="#DejaVuSans-Oblique-6d"/>
       <use xlink:href="#DejaVuSans-33" transform="translate(97.412109 -16.40625) scale(0.7)"/>
      </g>
     </g>
    </g>
    <g id="ytick_7">
     <g id="line2d_27">
      <g>
       <use xlink:href="#m8e7fabc901" x="36.16" y="38.701745" style="stroke: #000000; stroke-width: 0.8"/>
      </g>
     </g>
     <g id="text_27">
      <!-- $m_{4}$ -->
      <g transform="translate(20.46 40.981277) scale(0.06 -0.06)">
       <use xlink:href="#DejaVuSans-Oblique-6d"/>
       <use xlink:href="#DejaVuSans-34" transform="translate(97.412109 -16.40625) scale(0.7)"/>
      </g>
     </g>
    </g>
   </g>
   <g id="line2d_28">
    <path d="M 36.16 124.578109 
L 61.574433 60.170836 
" clip-path="url(#p7bfe65d4e2)" style="fill: none; stroke: #fc8d62; stroke-linecap: square"/>
   </g>
   <g id="line2d_29">
    <path d="M 61.574433 60.170836 
L 92.071753 124.578109 
" clip-path="url(#p7bfe65d4e2)" style="fill: none; stroke: #000000; stroke-linecap: square"/>
   </g>
   <g id="line2d_30">
    <path d="M 92.071753 124.578109 
L 102.237526 103.109018 
" clip-path="url(#p7bfe65d4e2)" style="fill: none; stroke: #66c2a5; stroke-linecap: square"/>
   </g>
   <g id="line2d_31">
    <path d="M 183.563711 103.109018 
L 193.729485 81.639927 
" clip-path="url(#p7bfe65d4e2)" style="fill: none; stroke: #66c2a5; stroke-linecap: square"/>
   </g>
   <g id="line2d_32">
    <path d="M 224.226804 81.639927 
L 244.558351 60.170836 
" clip-path="url(#p7bfe65d4e2)" style="fill: none; stroke: #000000; stroke-linecap: square"/>
   </g>
   <g id="line2d_33">
    <path d="M 244.558351 60.170836 
L 259.80701 38.701745 
" clip-path="url(#p7bfe65d4e2)" style="fill: none; stroke: #fc8d62; stroke-linecap: square"/>
   </g>
   <g id="line2d_34">
    <path d="M 193.729485 81.639927 
L 224.226804 81.639927 
" clip-path="url(#p7bfe65d4e2)" style="fill: none; stroke: #ffffff; stroke-linecap: square"/>
   </g>
   <g id="line2d_35">
    <path d="M 102.237526 103.109018 
L 183.563711 103.109018 
" clip-path="url(#p7bfe65d4e2)" style="fill: none; stroke: #ffffff; stroke-linecap: square"/>
   </g>
   <g id="line2d_36">
    <path d="M 264.889897 38.701745 
L 280.138557 60.170836 
" clip-path="url(#p7bfe65d4e2)" style="fill: none; stroke-dasharray: 3.7,1.6; stroke-dashoffset: 0; stroke: #8da0cb"/>
   </g>
   <g id="line2d_37">
    <path d="M 249.641237 60.170836 
L 264.889897 38.701745 
" clip-path="url(#p7bfe65d4e2)" style="fill: none; stroke-dasharray: 3.7,1.6; stroke-dashoffset: 0; stroke: #000000"/>
   </g>
   <g id="line2d_38">
    <path d="M 219.143918 81.639927 
L 239.475464 60.170836 
" clip-path="url(#p7bfe65d4e2)" style="fill: none; stroke-dasharray: 3.7,1.6; stroke-dashoffset: 0; stroke: #a6d854"/>
   </g>
   <g id="line2d_39">
    <path d="M 127.651959 81.639927 
L 178.480825 124.578109 
" clip-path="url(#p7bfe65d4e2)" style="fill: none; stroke-dasharray: 3.7,1.6; stroke-dashoffset: 0; stroke: #000000"/>
   </g>
   <g id="line2d_40">
    <path d="M 178.480825 124.578109 
L 188.646598 103.109018 
" clip-path="url(#p7bfe65d4e2)" style="fill: none; stroke-dasharray: 3.7,1.6; stroke-dashoffset: 0; stroke: #e78ac3"/>
   </g>
   <g id="line2d_41">
    <path d="M 188.646598 103.109018 
L 208.978144 103.109018 
" clip-path="url(#p7bfe65d4e2)" style="fill: none; stroke-dasharray: 3.7,1.6; stroke-dashoffset: 0; stroke: #ffffff"/>
   </g>
   <g id="line2d_42">
    <path d="M 107.320412 124.578109 
L 127.651959 81.639927 
" clip-path="url(#p7bfe65d4e2)" style="fill: none; stroke-dasharray: 3.7,1.6; stroke-dashoffset: 0; stroke: #a6d854"/>
   </g>
   <g id="line2d_43">
    <path d="M 71.740206 38.701745 
L 107.320412 124.578109 
" clip-path="url(#p7bfe65d4e2)" style="fill: none; stroke-dasharray: 3.7,1.6; stroke-dashoffset: 0; stroke: #000000"/>
   </g>
   <g id="line2d_44">
    <path d="M 36.16 124.578109 
L 71.740206 38.701745 
" clip-path="url(#p7bfe65d4e2)" style="fill: none; stroke-dasharray: 3.7,1.6; stroke-dashoffset: 0; stroke: #8da0cb"/>
   </g>
   <g id="line2d_45">
    <path d="M 208.978144 103.109018 
L 219.143918 81.639927 
" clip-path="url(#p7bfe65d4e2)" style="fill: none; stroke-dasharray: 3.7,1.6; stroke-dashoffset: 0; stroke: #000000"/>
   </g>
   <g id="line2d_46">
    <path d="M 239.475464 60.170836 
L 249.641237 60.170836 
" clip-path="url(#p7bfe65d4e2)" style="fill: none; stroke-dasharray: 3.7,1.6; stroke-dashoffset: 0; stroke: #ffffff"/>
   </g>
   <g id="patch_3">
    <path d="M 36.16 178.8144 
L 36.16 24.72 
" style="fill: none; stroke: #000000; stroke-width: 0.8; stroke-linejoin: miter; stroke-linecap: square"/>
   </g>
   <g id="patch_4">
    <path d="M 529.2 178.8144 
L 529.2 24.72 
" style="fill: none"/>
   </g>
   <g id="patch_5">
    <path d="M 36.16 178.8144 
L 529.2 178.8144 
" style="fill: none; stroke: #000000; stroke-width: 0.8; stroke-linejoin: miter; stroke-linecap: square"/>
   </g>
   <g id="patch_6">
    <path d="M 36.16 24.72 
L 529.2 24.72 
" style="fill: none"/>
   </g>
   <g id="text_28">
    <!-- $O_{1,1}$ -->
    <g transform="translate(134.620619 105.109018) scale(0.08 -0.08)">
     <defs>
      <path id="DejaVuSans-Oblique-4f" d="M 2919 4238 
Q 2400 4238 2003 3986 
Q 1606 3734 1313 3219 
Q 1125 2891 1026 2522 
Q 928 2153 928 1778 
Q 928 1128 1239 775 
Q 1550 422 2119 422 
Q 2631 422 3032 676 
Q 3434 931 3719 1434 
Q 3909 1772 4009 2142 
Q 4109 2513 4109 2881 
Q 4109 3528 3796 3883 
Q 3484 4238 2919 4238 
z
M 2100 -91 
Q 1241 -91 748 418 
Q 256 928 256 1813 
Q 256 2319 448 2847 
Q 641 3375 978 3788 
Q 1375 4272 1862 4511 
Q 2350 4750 2938 4750 
Q 3794 4750 4287 4245 
Q 4781 3741 4781 2869 
Q 4781 2331 4593 1812 
Q 4406 1294 4056 872 
Q 3656 384 3173 146 
Q 2691 -91 2100 -91 
z
" transform="scale(0.015625)"/>
      <path id="DejaVuSans-2c" d="M 750 794 
L 1409 794 
L 1409 256 
L 897 -744 
L 494 -744 
L 750 256 
L 750 794 
z
" transform="scale(0.015625)"/>
     </defs>
     <use xlink:href="#DejaVuSans-Oblique-4f" transform="translate(0 0.78125)"/>
     <use xlink:href="#DejaVuSans-31" transform="translate(78.710938 -15.625) scale(0.7)"/>
     <use xlink:href="#DejaVuSans-2c" transform="translate(123.24707 -15.625) scale(0.7)"/>
     <use xlink:href="#DejaVuSans-31" transform="translate(159.135742 -15.625) scale(0.7)"/>
    </g>
   </g>
   <g id="text_29">
    <!-- 13 -->
    <g transform="translate(103.92442 108.83866) scale(0.06 -0.06)">
     <use xlink:href="#DejaVuSans-31"/>
     <use xlink:href="#DejaVuSans-33" x="63.623047"/>
    </g>
   </g>
   <g id="text_30">
    <!-- 29 -->
    <g transform="translate(174.241817 108.83866) scale(0.06 -0.06)">
     <use xlink:href="#DejaVuSans-32"/>
     <use xlink:href="#DejaVuSans-39" x="63.623047"/>
    </g>
   </g>
   <g id="text_31">
    <!-- $O_{1,2}$ -->
    <g transform="translate(292.190103 83.639927) scale(0.08 -0.08)">
     <use xlink:href="#DejaVuSans-Oblique-4f" transform="translate(0 0.78125)"/>
     <use xlink:href="#DejaVuSans-31" transform="translate(78.710938 -15.625) scale(0.7)"/>
     <use xlink:href="#DejaVuSans-2c" transform="translate(123.24707 -15.625) scale(0.7)"/>
     <use xlink:href="#DejaVuSans-32" transform="translate(159.135742 -15.625) scale(0.7)"/>
    </g>
   </g>
   <g id="text_32">
    <!-- 36 -->
    <g transform="translate(220.830812 87.369569) scale(0.06 -0.06)">
     <use xlink:href="#DejaVuSans-33"/>
     <use xlink:href="#DejaVuSans-36" x="63.623047"/>
    </g>
   </g>
   <g id="text_33">
    <!-- 68 -->
    <g transform="translate(372.474394 87.369569) scale(0.06 -0.06)">
     <use xlink:href="#DejaVuSans-36"/>
     <use xlink:href="#DejaVuSans-38" x="63.623047"/>
    </g>
   </g>
   <g id="text_34">
    <!-- $O_{1,3}$ -->
    <g transform="translate(424.345155 83.639927) scale(0.08 -0.08)">
     <use xlink:href="#DejaVuSans-Oblique-4f" transform="translate(0 0.78125)"/>
     <use xlink:href="#DejaVuSans-31" transform="translate(78.710938 -15.625) scale(0.7)"/>
     <use xlink:href="#DejaVuSans-2c" transform="translate(123.24707 -15.625) scale(0.7)"/>
     <use xlink:href="#DejaVuSans-33" transform="translate(159.135742 -15.625) scale(0.7)"/>
    </g>
   </g>
   <g id="text_35">
    <!-- 68 -->
    <g transform="translate(383.483183 87.369569) scale(0.06 -0.06)">
     <use xlink:href="#DejaVuSans-36"/>
     <use xlink:href="#DejaVuSans-38" x="63.623047"/>
    </g>
   </g>
   <g id="text_36">
    <!-- 88 -->
    <g transform="translate(474.132126 87.369569) scale(0.06 -0.06)">
     <use xlink:href="#DejaVuSans-38"/>
     <use xlink:href="#DejaVuSans-38" x="63.623047"/>
    </g>
   </g>
   <g id="text_37">
    <!-- $O_{2,3}$ -->
    <g transform="translate(424.345155 40.701745) scale(0.08 -0.08)">
     <use xlink:href="#DejaVuSans-Oblique-4f" transform="translate(0 0.78125)"/>
     <use xlink:href="#DejaVuSans-32" transform="translate(78.710938 -15.625) scale(0.7)"/>
     <use xlink:href="#DejaVuSans-2c" transform="translate(123.24707 -15.625) scale(0.7)"/>
     <use xlink:href="#DejaVuSans-33" transform="translate(159.135742 -15.625) scale(0.7)"/>
    </g>
   </g>
   <g id="text_38">
    <!-- 61 -->
    <g transform="translate(347.902977 44.431387) scale(0.06 -0.06)">
     <use xlink:href="#DejaVuSans-36"/>
     <use xlink:href="#DejaVuSans-31" x="63.623047"/>
    </g>
   </g>
   <g id="text_39">
    <!-- 95 -->
    <g transform="translate(509.712333 44.431387) scale(0.06 -0.06)">
     <use xlink:href="#DejaVuSans-39"/>
     <use xlink:href="#DejaVuSans-35" x="63.623047"/>
    </g>
   </g>
   <g id="text_40">
    <!-- $O_{2,2}$ -->
    <g transform="translate(297.27299 40.701745) scale(0.08 -0.08)">
     <use xlink:href="#DejaVuSans-Oblique-4f" transform="translate(0 0.78125)"/>
     <use xlink:href="#DejaVuSans-32" transform="translate(78.710938 -15.625) scale(0.7)"/>
     <use xlink:href="#DejaVuSans-2c" transform="translate(123.24707 -15.625) scale(0.7)"/>
     <use xlink:href="#DejaVuSans-32" transform="translate(159.135742 -15.625) scale(0.7)"/>
    </g>
   </g>
   <g id="text_41">
    <!-- 45 -->
    <g transform="translate(266.576791 44.431387) scale(0.06 -0.06)">
     <use xlink:href="#DejaVuSans-34"/>
     <use xlink:href="#DejaVuSans-35" x="63.623047"/>
    </g>
   </g>
   <g id="text_42">
    <!-- 61 -->
    <g transform="translate(336.894188 44.431387) scale(0.06 -0.06)">
     <use xlink:href="#DejaVuSans-36"/>
     <use xlink:href="#DejaVuSans-31" x="63.623047"/>
    </g>
   </g>
   <g id="text_43">
    <!-- $O_{2,1}$ -->
    <g transform="translate(144.786392 62.170836) scale(0.08 -0.08)">
     <use xlink:href="#DejaVuSans-Oblique-4f" transform="translate(0 0.78125)"/>
     <use xlink:href="#DejaVuSans-32" transform="translate(78.710938 -15.625) scale(0.7)"/>
     <use xlink:href="#DejaVuSans-2c" transform="translate(123.24707 -15.625) scale(0.7)"/>
     <use xlink:href="#DejaVuSans-31" transform="translate(159.135742 -15.625) scale(0.7)"/>
    </g>
   </g>
   <g id="text_44">
    <!-- 5 -->
    <g transform="translate(65.170077 65.900478) scale(0.06 -0.06)">
     <use xlink:href="#DejaVuSans-35"/>
    </g>
   </g>
   <g id="text_45">
    <!-- 41 -->
    <g transform="translate(235.236456 65.900478) scale(0.06 -0.06)">
     <use xlink:href="#DejaVuSans-34"/>
     <use xlink:href="#DejaVuSans-31" x="63.623047"/>
    </g>
   </g>
   <g id="text_46">
    <!-- $O_{3,1}$ -->
    <g transform="translate(119.371959 40.701745) scale(0.08 -0.08)">
     <use xlink:href="#DejaVuSans-Oblique-4f" transform="translate(0 0.78125)"/>
     <use xlink:href="#DejaVuSans-33" transform="translate(78.710938 -15.625) scale(0.7)"/>
     <use xlink:href="#DejaVuSans-2c" transform="translate(123.24707 -15.625) scale(0.7)"/>
     <use xlink:href="#DejaVuSans-31" transform="translate(159.135742 -15.625) scale(0.7)"/>
    </g>
   </g>
   <g id="text_47">
    <!-- 7 -->
    <g transform="translate(75.33585 44.431387) scale(0.06 -0.06)">
     <use xlink:href="#DejaVuSans-37"/>
    </g>
   </g>
   <g id="text_48">
    <!-- 29 -->
    <g transform="translate(174.241817 44.431387) scale(0.06 -0.06)">
     <use xlink:href="#DejaVuSans-32"/>
     <use xlink:href="#DejaVuSans-39" x="63.623047"/>
    </g>
   </g>
   <g id="text_49">
    <!-- $O_{3,2}$ -->
    <g transform="translate(215.946804 40.701745) scale(0.08 -0.08)">
     <use xlink:href="#DejaVuSans-Oblique-4f" transform="translate(0 0.78125)"/>
     <use xlink:href="#DejaVuSans-33" transform="translate(78.710938 -15.625) scale(0.7)"/>
     <use xlink:href="#DejaVuSans-2c" transform="translate(123.24707 -15.625) scale(0.7)"/>
     <use xlink:href="#DejaVuSans-32" transform="translate(159.135742 -15.625) scale(0.7)"/>
    </g>
   </g>
   <g id="text_50">
    <!-- 29 -->
    <g transform="translate(185.250606 44.431387) scale(0.06 -0.06)">
     <use xlink:href="#DejaVuSans-32"/>
     <use xlink:href="#DejaVuSans-39" x="63.623047"/>
    </g>
   </g>
   <g id="text_51">
    <!-- 45 -->
    <g transform="translate(255.568003 44.431387) scale(0.06 -0.06)">
     <use xlink:href="#DejaVuSans-34"/>
     <use xlink:href="#DejaVuSans-35" x="63.623047"/>
    </g>
   </g>
   <g id="text_52">
    <!-- $O_{3,3}$ -->
    <g transform="translate(449.759588 62.170836) scale(0.08 -0.08)">
     <use xlink:href="#DejaVuSans-Oblique-4f" transform="translate(0 0.78125)"/>
     <use xlink:href="#DejaVuSans-33" transform="translate(78.710938 -15.625) scale(0.7)"/>
     <use xlink:href="#DejaVuSans-2c" transform="translate(123.24707 -15.625) scale(0.7)"/>
     <use xlink:href="#DejaVuSans-33" transform="translate(159.135742 -15.625) scale(0.7)"/>
    </g>
   </g>
   <g id="text_53">
    <!-- 69 -->
    <g transform="translate(388.56607 65.900478) scale(0.06 -0.06)">
     <use xlink:href="#DejaVuSans-36"/>
     <use xlink:href="#DejaVuSans-39" x="63.623047"/>
    </g>
   </g>
   <g id="text_54">
    <!-- 97 -->
    <g transform="translate(519.878106 65.900478) scale(0.06 -0.06)">
     <use xlink:href="#DejaVuSans-39"/>
     <use xlink:href="#DejaVuSans-37" x="63.623047"/>
    </g>
   </g>
   <g id="text_55">
    <!-- $O_{4,1}$ -->
    <g transform="translate(261.692784 105.109018) scale(0.08 -0.08)">
     <use xlink:href="#DejaVuSans-Oblique-4f" transform="translate(0 0.78125)"/>
     <use xlink:href="#DejaVuSans-34" transform="translate(78.710938 -15.625) scale(0.7)"/>
     <use xlink:href="#DejaVuSans-2c" transform="translate(123.24707 -15.625) scale(0.7)"/>
     <use xlink:href="#DejaVuSans-31" transform="translate(159.135742 -15.625) scale(0.7)"/>
    </g>
   </g>
   <g id="text_56">
    <!-- 30 -->
    <g transform="translate(190.333492 108.83866) scale(0.06 -0.06)">
     <use xlink:href="#DejaVuSans-33"/>
     <use xlink:href="#DejaVuSans-30" x="63.623047"/>
    </g>
   </g>
   <g id="text_57">
    <!-- 62 -->
    <g transform="translate(341.977075 108.83866) scale(0.06 -0.06)">
     <use xlink:href="#DejaVuSans-36"/>
     <use xlink:href="#DejaVuSans-32" x="63.623047"/>
    </g>
   </g>
   <g id="text_58">
    <!-- $O_{4,2}$ -->
    <g transform="translate(424.345155 105.109018) scale(0.08 -0.08)">
     <use xlink:href="#DejaVuSans-Oblique-4f" transform="translate(0 0.78125)"/>
     <use xlink:href="#DejaVuSans-34" transform="translate(78.710938 -15.625) scale(0.7)"/>
     <use xlink:href="#DejaVuSans-2c" transform="translate(123.24707 -15.625) scale(0.7)"/>
     <use xlink:href="#DejaVuSans-32" transform="translate(159.135742 -15.625) scale(0.7)"/>
    </g>
   </g>
   <g id="text_59">
    <!-- 62 -->
    <g transform="translate(352.985863 108.83866) scale(0.06 -0.06)">
     <use xlink:href="#DejaVuSans-36"/>
     <use xlink:href="#DejaVuSans-32" x="63.623047"/>
    </g>
   </g>
   <g id="text_60">
    <!-- 94 -->
    <g transform="translate(504.629446 108.83866) scale(0.06 -0.06)">
     <use xlink:href="#DejaVuSans-39"/>
     <use xlink:href="#DejaVuSans-34" x="63.623047"/>
    </g>
   </g>
   <g id="text_61">
    <!-- $O_{5,1}$ -->
    <g transform="translate(165.117938 83.639927) scale(0.08 -0.08)">
     <use xlink:href="#DejaVuSans-Oblique-4f" transform="translate(0 0.78125)"/>
     <use xlink:href="#DejaVuSans-35" transform="translate(78.710938 -15.625) scale(0.7)"/>
     <use xlink:href="#DejaVuSans-2c" transform="translate(123.24707 -15.625) scale(0.7)"/>
     <use xlink:href="#DejaVuSans-31" transform="translate(159.135742 -15.625) scale(0.7)"/>
    </g>
   </g>
   <g id="text_62">
    <!-- 18 -->
    <g transform="translate(129.338853 87.369569) scale(0.06 -0.06)">
     <use xlink:href="#DejaVuSans-31"/>
     <use xlink:href="#DejaVuSans-38" x="63.623047"/>
    </g>
   </g>
   <g id="text_63">
    <!-- 36 -->
    <g transform="translate(209.822023 87.369569) scale(0.06 -0.06)">
     <use xlink:href="#DejaVuSans-33"/>
     <use xlink:href="#DejaVuSans-36" x="63.623047"/>
    </g>
   </g>
   <g id="text_64">
    <!-- $O_{5,2}$ -->
    <g transform="translate(307.438763 62.170836) scale(0.08 -0.08)">
     <use xlink:href="#DejaVuSans-Oblique-4f" transform="translate(0 0.78125)"/>
     <use xlink:href="#DejaVuSans-35" transform="translate(78.710938 -15.625) scale(0.7)"/>
     <use xlink:href="#DejaVuSans-2c" transform="translate(123.24707 -15.625) scale(0.7)"/>
     <use xlink:href="#DejaVuSans-32" transform="translate(159.135742 -15.625) scale(0.7)"/>
    </g>
   </g>
   <g id="text_65">
    <!-- 41 -->
    <g transform="translate(246.245245 65.900478) scale(0.06 -0.06)">
     <use xlink:href="#DejaVuSans-34"/>
     <use xlink:href="#DejaVuSans-31" x="63.623047"/>
    </g>
   </g>
   <g id="text_66">
    <!-- 69 -->
    <g transform="translate(377.557281 65.900478) scale(0.06 -0.06)">
     <use xlink:href="#DejaVuSans-36"/>
     <use xlink:href="#DejaVuSans-39" x="63.623047"/>
    </g>
   </g>
   <g id="text_67">
    <!-- EX140(5-13-4-2) -->
    <g transform="translate(241.332344 18.72) scale(0.1 -0.1)">
     <defs>
      <path id="DejaVuSans-45" d="M 628 4666 
L 3578 4666 
L 3578 4134 
L 1259 4134 
L 1259 2753 
L 3481 2753 
L 3481 2222 
L 1259 2222 
L 1259 531 
L 3634 531 
L 3634 0 
L 628 0 
L 628 4666 
z
" transform="scale(0.015625)"/>
      <path id="DejaVuSans-58" d="M 403 4666 
L 1081 4666 
L 2241 2931 
L 3406 4666 
L 4084 4666 
L 2584 2425 
L 4184 0 
L 3506 0 
L 2194 1984 
L 872 0 
L 191 0 
L 1856 2491 
L 403 4666 
z
" transform="scale(0.015625)"/>
      <path id="DejaVuSans-28" d="M 1984 4856 
Q 1566 4138 1362 3434 
Q 1159 2731 1159 2009 
Q 1159 1288 1364 580 
Q 1569 -128 1984 -844 
L 1484 -844 
Q 1016 -109 783 600 
Q 550 1309 550 2009 
Q 550 2706 781 3412 
Q 1013 4119 1484 4856 
L 1984 4856 
z
" transform="scale(0.015625)"/>
      <path id="DejaVuSans-2d" d="M 313 2009 
L 1997 2009 
L 1997 1497 
L 313 1497 
L 313 2009 
z
" transform="scale(0.015625)"/>
      <path id="DejaVuSans-29" d="M 513 4856 
L 1013 4856 
Q 1481 4119 1714 3412 
Q 1947 2706 1947 2009 
Q 1947 1309 1714 600 
Q 1481 -109 1013 -844 
L 513 -844 
Q 928 -128 1133 580 
Q 1338 1288 1338 2009 
Q 1338 2731 1133 3434 
Q 928 4138 513 4856 
z
" transform="scale(0.015625)"/>
     </defs>
     <use xlink:href="#DejaVuSans-45"/>
     <use xlink:href="#DejaVuSans-58" x="63.183594"/>
     <use xlink:href="#DejaVuSans-31" x="131.689453"/>
     <use xlink:href="#DejaVuSans-34" x="195.3125"/>
     <use xlink:href="#DejaVuSans-30" x="258.935547"/>
     <use xlink:href="#DejaVuSans-28" x="322.558594"/>
     <use xlink:href="#DejaVuSans-35" x="361.572266"/>
     <use xlink:href="#DejaVuSans-2d" x="425.195312"/>
     <use xlink:href="#DejaVuSans-31" x="461.279297"/>
     <use xlink:href="#DejaVuSans-33" x="524.902344"/>
     <use xlink:href="#DejaVuSans-2d" x="588.525391"/>
     <use xlink:href="#DejaVuSans-34" x="624.609375"/>
     <use xlink:href="#DejaVuSans-2d" x="688.232422"/>
     <use xlink:href="#DejaVuSans-32" x="724.316406"/>
     <use xlink:href="#DejaVuSans-29" x="787.939453"/>
    </g>
   </g>
   <g id="legend_1">
    <g id="patch_7">
     <path d="M 131.850313 203.548827 
L 433.509687 203.548827 
Q 434.709687 203.548827 434.709687 202.348827 
L 434.709687 195.341952 
Q 434.709687 194.141952 433.509687 194.141952 
L 131.850313 194.141952 
Q 130.650313 194.141952 130.650313 195.341952 
L 130.650313 202.348827 
Q 130.650313 203.548827 131.850313 203.548827 
z
" style="fill: #ffffff; opacity: 0.8; stroke: #cccccc; stroke-linejoin: miter"/>
    </g>
    <g id="patch_8">
     <path d="M 132.450313 200.501014 
L 144.450313 200.501014 
L 144.450313 196.301015 
L 132.450313 196.301015 
z
" style="fill: #66c2a5; stroke: #808080; stroke-linejoin: miter"/>
    </g>
    <g id="text_68">
     <!-- Job1 -->
     <g transform="translate(149.250313 200.501014) scale(0.06 -0.06)">
      <defs>
       <path id="DejaVuSans-4a" d="M 628 4666 
L 1259 4666 
L 1259 325 
Q 1259 -519 939 -900 
Q 619 -1281 -91 -1281 
L -331 -1281 
L -331 -750 
L -134 -750 
Q 284 -750 456 -515 
Q 628 -281 628 325 
L 628 4666 
z
" transform="scale(0.015625)"/>
       <path id="DejaVuSans-62" d="M 3116 1747 
Q 3116 2381 2855 2742 
Q 2594 3103 2138 3103 
Q 1681 3103 1420 2742 
Q 1159 2381 1159 1747 
Q 1159 1113 1420 752 
Q 1681 391 2138 391 
Q 2594 391 2855 752 
Q 3116 1113 3116 1747 
z
M 1159 2969 
Q 1341 3281 1617 3432 
Q 1894 3584 2278 3584 
Q 2916 3584 3314 3078 
Q 3713 2572 3713 1747 
Q 3713 922 3314 415 
Q 2916 -91 2278 -91 
Q 1894 -91 1617 61 
Q 1341 213 1159 525 
L 1159 0 
L 581 0 
L 581 4863 
L 1159 4863 
L 1159 2969 
z
" transform="scale(0.015625)"/>
      </defs>
      <use xlink:href="#DejaVuSans-4a"/>
      <use xlink:href="#DejaVuSans-6f" x="29.492188"/>
      <use xlink:href="#DejaVuSans-62" x="90.673828"/>
      <use xlink:href="#DejaVuSans-31" x="154.150391"/>
     </g>
    </g>
    <g id="patch_9">
     <path d="M 167.118125 200.501014 
L 179.118125 200.501014 
L 179.118125 196.301015 
L 167.118125 196.301015 
z
" style="fill: #fc8d62; stroke: #808080; stroke-linejoin: miter"/>
    </g>
    <g id="text_69">
     <!-- Job2 -->
     <g transform="translate(183.918125 200.501014) scale(0.06 -0.06)">
      <use xlink:href="#DejaVuSans-4a"/>
      <use xlink:href="#DejaVuSans-6f" x="29.492188"/>
      <use xlink:href="#DejaVuSans-62" x="90.673828"/>
      <use xlink:href="#DejaVuSans-32" x="154.150391"/>
     </g>
    </g>
    <g id="patch_10">
     <path d="M 201.785938 200.501014 
L 213.785938 200.501014 
L 213.785938 196.301015 
L 201.785938 196.301015 
z
" style="fill: #8da0cb; stroke: #808080; stroke-linejoin: miter"/>
    </g>
    <g id="text_70">
     <!-- Job3 -->
     <g transform="translate(218.585938 200.501014) scale(0.06 -0.06)">
      <use xlink:href="#DejaVuSans-4a"/>
      <use xlink:href="#DejaVuSans-6f" x="29.492188"/>
      <use xlink:href="#DejaVuSans-62" x="90.673828"/>
      <use xlink:href="#DejaVuSans-33" x="154.150391"/>
     </g>
    </g>
    <g id="patch_11">
     <path d="M 236.45375 200.501014 
L 248.45375 200.501014 
L 248.45375 196.301015 
L 236.45375 196.301015 
z
" style="fill: #e78ac3; stroke: #808080; stroke-linejoin: miter"/>
    </g>
    <g id="text_71">
     <!-- Job4 -->
     <g transform="translate(253.25375 200.501014) scale(0.06 -0.06)">
      <use xlink:href="#DejaVuSans-4a"/>
      <use xlink:href="#DejaVuSans-6f" x="29.492188"/>
      <use xlink:href="#DejaVuSans-62" x="90.673828"/>
      <use xlink:href="#DejaVuSans-34" x="154.150391"/>
     </g>
    </g>
    <g id="patch_12">
     <path d="M 271.121562 200.501014 
L 283.121562 200.501014 
L 283.121562 196.301015 
L 271.121562 196.301015 
z
" style="fill: #a6d854; stroke: #808080; stroke-linejoin: miter"/>
    </g>
    <g id="text_72">
     <!-- Job5 -->
     <g transform="translate(287.921562 200.501014) scale(0.06 -0.06)">
      <use xlink:href="#DejaVuSans-4a"/>
      <use xlink:href="#DejaVuSans-6f" x="29.492188"/>
      <use xlink:href="#DejaVuSans-62" x="90.673828"/>
      <use xlink:href="#DejaVuSans-35" x="154.150391"/>
     </g>
    </g>
    <g id="line2d_47">
     <path d="M 305.789375 198.401015 
L 311.789375 198.401015 
L 317.789375 198.401015 
" style="fill: none; stroke: #000000; stroke-linecap: square"/>
    </g>
    <g id="text_73">
     <!-- AGV1 -->
     <g transform="translate(322.589375 200.501014) scale(0.06 -0.06)">
      <defs>
       <path id="DejaVuSans-47" d="M 3809 666 
L 3809 1919 
L 2778 1919 
L 2778 2438 
L 4434 2438 
L 4434 434 
Q 4069 175 3628 42 
Q 3188 -91 2688 -91 
Q 1594 -91 976 548 
Q 359 1188 359 2328 
Q 359 3472 976 4111 
Q 1594 4750 2688 4750 
Q 3144 4750 3555 4637 
Q 3966 4525 4313 4306 
L 4313 3634 
Q 3963 3931 3569 4081 
Q 3175 4231 2741 4231 
Q 1884 4231 1454 3753 
Q 1025 3275 1025 2328 
Q 1025 1384 1454 906 
Q 1884 428 2741 428 
Q 3075 428 3337 486 
Q 3600 544 3809 666 
z
" transform="scale(0.015625)"/>
       <path id="DejaVuSans-56" d="M 1831 0 
L 50 4666 
L 709 4666 
L 2188 738 
L 3669 4666 
L 4325 4666 
L 2547 0 
L 1831 0 
z
" transform="scale(0.015625)"/>
      </defs>
      <use xlink:href="#DejaVuSans-41"/>
      <use xlink:href="#DejaVuSans-47" x="66.658203"/>
      <use xlink:href="#DejaVuSans-56" x="144.148438"/>
      <use xlink:href="#DejaVuSans-31" x="212.556641"/>
     </g>
    </g>
    <g id="line2d_48">
     <path d="M 343.959687 198.401015 
L 349.959687 198.401015 
L 355.959687 198.401015 
" style="fill: none; stroke-dasharray: 3.7,1.6; stroke-dashoffset: 0; stroke: #000000"/>
    </g>
    <g id="text_74">
     <!-- AGV2 -->
     <g transform="translate(360.759687 200.501014) scale(0.06 -0.06)">
      <use xlink:href="#DejaVuSans-41"/>
      <use xlink:href="#DejaVuSans-47" x="66.658203"/>
      <use xlink:href="#DejaVuSans-56" x="144.148438"/>
      <use xlink:href="#DejaVuSans-32" x="212.556641"/>
     </g>
    </g>
    <g id="patch_13">
     <path d="M 382.13 200.501014 
L 394.13 200.501014 
L 394.13 196.301015 
L 382.13 196.301015 
z
" style="fill: #ffffff; stroke-dasharray: 3.7,1.6; stroke-dashoffset: 0; stroke: #808080; stroke-linejoin: miter"/>
    </g>
    <g id="text_75">
     <!-- empty load -->
     <g transform="translate(398.93 200.501014) scale(0.06 -0.06)">
      <defs>
       <path id="DejaVuSans-6d" d="M 3328 2828 
Q 3544 3216 3844 3400 
Q 4144 3584 4550 3584 
Q 5097 3584 5394 3201 
Q 5691 2819 5691 2113 
L 5691 0 
L 5113 0 
L 5113 2094 
Q 5113 2597 4934 2840 
Q 4756 3084 4391 3084 
Q 3944 3084 3684 2787 
Q 3425 2491 3425 1978 
L 3425 0 
L 2847 0 
L 2847 2094 
Q 2847 2600 2669 2842 
Q 2491 3084 2119 3084 
Q 1678 3084 1418 2786 
Q 1159 2488 1159 1978 
L 1159 0 
L 581 0 
L 581 3500 
L 1159 3500 
L 1159 2956 
Q 1356 3278 1631 3431 
Q 1906 3584 2284 3584 
Q 2666 3584 2933 3390 
Q 3200 3197 3328 2828 
z
" transform="scale(0.015625)"/>
       <path id="DejaVuSans-79" d="M 2059 -325 
Q 1816 -950 1584 -1140 
Q 1353 -1331 966 -1331 
L 506 -1331 
L 506 -850 
L 844 -850 
Q 1081 -850 1212 -737 
Q 1344 -625 1503 -206 
L 1606 56 
L 191 3500 
L 800 3500 
L 1894 763 
L 2988 3500 
L 3597 3500 
L 2059 -325 
z
" transform="scale(0.015625)"/>
       <path id="DejaVuSans-20" transform="scale(0.015625)"/>
       <path id="DejaVuSans-6c" d="M 603 4863 
L 1178 4863 
L 1178 0 
L 603 0 
L 603 4863 
z
" transform="scale(0.015625)"/>
       <path id="DejaVuSans-61" d="M 2194 1759 
Q 1497 1759 1228 1600 
Q 959 1441 959 1056 
Q 959 750 1161 570 
Q 1363 391 1709 391 
Q 2188 391 2477 730 
Q 2766 1069 2766 1631 
L 2766 1759 
L 2194 1759 
z
M 3341 1997 
L 3341 0 
L 2766 0 
L 2766 531 
Q 2569 213 2275 61 
Q 1981 -91 1556 -91 
Q 1019 -91 701 211 
Q 384 513 384 1019 
Q 384 1609 779 1909 
Q 1175 2209 1959 2209 
L 2766 2209 
L 2766 2266 
Q 2766 2663 2505 2880 
Q 2244 3097 1772 3097 
Q 1472 3097 1187 3025 
Q 903 2953 641 2809 
L 641 3341 
Q 956 3463 1253 3523 
Q 1550 3584 1831 3584 
Q 2591 3584 2966 3190 
Q 3341 2797 3341 1997 
z
" transform="scale(0.015625)"/>
       <path id="DejaVuSans-64" d="M 2906 2969 
L 2906 4863 
L 3481 4863 
L 3481 0 
L 2906 0 
L 2906 525 
Q 2725 213 2448 61 
Q 2172 -91 1784 -91 
Q 1150 -91 751 415 
Q 353 922 353 1747 
Q 353 2572 751 3078 
Q 1150 3584 1784 3584 
Q 2172 3584 2448 3432 
Q 2725 3281 2906 2969 
z
M 947 1747 
Q 947 1113 1208 752 
Q 1469 391 1925 391 
Q 2381 391 2643 752 
Q 2906 1113 2906 1747 
Q 2906 2381 2643 2742 
Q 2381 3103 1925 3103 
Q 1469 3103 1208 2742 
Q 947 2381 947 1747 
z
" transform="scale(0.015625)"/>
      </defs>
      <use xlink:href="#DejaVuSans-65"/>
      <use xlink:href="#DejaVuSans-6d" x="61.523438"/>
      <use xlink:href="#DejaVuSans-70" x="158.935547"/>
      <use xlink:href="#DejaVuSans-74" x="222.412109"/>
      <use xlink:href="#DejaVuSans-79" x="261.621094"/>
      <use xlink:href="#DejaVuSans-20" x="320.800781"/>
      <use xlink:href="#DejaVuSans-6c" x="352.587891"/>
      <use xlink:href="#DejaVuSans-6f" x="380.371094"/>
      <use xlink:href="#DejaVuSans-61" x="441.552734"/>
      <use xlink:href="#DejaVuSans-64" x="502.832031"/>
     </g>
    </g>
   </g>
  </g>
 </g>
 <defs>
  <clipPath id="p7bfe65d4e2">
   <rect x="36.16" y="24.72" width="493.04" height="154.0944"/>
  </clipPath>
 </defs>
</svg>
