<?xml version="1.0" encoding="utf-8" standalone="no"?>
<!DOCTYPE svg PUBLIC "-//W3C//DTD SVG 1.1//EN"
  "http://www.w3.org/Graphics/SVG/1.1/DTD/svg11.dtd">
<svg xmlns:xlink="http://www.w3.org/1999/xlink" width="540pt" height="216pt" viewBox="0 0 540 216" xmlns="http://www.w3.org/2000/svg" version="1.1">
 <metadata>
  <rdf:RDF xmlns:dc="http://purl.org/dc/elements/1.1/" xmlns:cc="http://creativecommons.org/ns#" xmlns:rdf="http://www.w3.org/1999/02/22-rdf-syntax-ns#">
   <cc:Work>
    <dc:type rdf:resource="http://purl.org/dc/dcmitype/StillImage"/>
    <dc:date>2026-03-22T21:21:10.582433</dc:date>
    <dc:format>image/svg+xml</dc:format>
    <dc:creator>
     <cc:Agent>
      <dc:title>Matplotlib v3.6.1, https://matplotlib.org/</dc:title>
     </cc:Agent>
    </dc:creator>
   </cc:Work>
  </rdf:RDF>
 </metadata>
 <defs>
  <style type="text/css">*{stroke-linejoin: round; stroke-linecap: butt}</style>
 </defs>
 <g id="figure_1">
  <g id="patch_1">
   <path d="M 0 216 
L 540 216 
L 540 0 
L 0 0 
z
" style="fill: #ffffff"/>
  </g>
  <g id="axes_1">
   <g id="patch_2">
    <path d="M 36.16 178.8144 
L 528.246159 178.8144 
L 528.246159 24.72 
L 36.16 24.72 
z
" style="fill: #ffffff"/>
   </g>
   <g id="BrokenBarHCollection_1">
    <path d="M 36.16 133.544387 
L 36.16 124.893006 
L 36.16 124.893006 
L 36.16 133.544387 
L 36.16 133.544387 
z
" clip-path="url(#p7a7fbe35ce)" style="fill: #1f77b4"/>
   </g>
   <g id="BrokenBarHCollection_2">
    <path d="M 36.16 120.23457 
L 36.16 111.58319 
L 36.16 111.58319 
L 36.16 120.23457 
L 36.16 120.23457 
z
" clip-path="url(#p7a7fbe35ce)" style="fill: #1f77b4"/>
   </g>
   <g id="BrokenBarHCollection_3">
    <path d="M 36.16 106.924754 
L 36.16 98.273373 
L 36.16 98.273373 
L 36.16 106.924754 
L 36.16 106.924754 
z
" clip-path="url(#p7a7fbe35ce)" style="fill: #1f77b4"/>
   </g>
   <g id="BrokenBarHCollection_4">
    <path d="M 36.16 93.614937 
L 36.16 84.963557 
L 36.16 84.963557 
L 36.16 93.614937 
L 36.16 93.614937 
z
" clip-path="url(#p7a7fbe35ce)" style="fill: #1f77b4"/>
   </g>
   <g id="BrokenBarHCollection_5">
    <path d="M 36.16 80.305121 
L 36.16 71.65374 
L 36.16 71.65374 
L 36.16 80.305121 
L 36.16 80.305121 
z
" clip-path="url(#p7a7fbe35ce)" style="fill: #1f77b4"/>
   </g>
   <g id="BrokenBarHCollection_6">
    <path d="M 36.16 66.995305 
L 36.16 58.343924 
L 36.16 58.343924 
L 36.16 66.995305 
L 36.16 66.995305 
z
" clip-path="url(#p7a7fbe35ce)" style="fill: #1f77b4"/>
   </g>
   <g id="BrokenBarHCollection_7">
    <path d="M 36.16 53.685488 
L 36.16 45.034107 
L 36.16 45.034107 
L 36.16 53.685488 
L 36.16 53.685488 
z
" clip-path="url(#p7a7fbe35ce)" style="fill: #1f77b4"/>
   </g>
   <g id="BrokenBarHCollection_8">
    <path d="M 36.16 40.375672 
L 36.16 31.724291 
L 36.16 31.724291 
L 36.16 40.375672 
L 36.16 40.375672 
z
" clip-path="url(#p7a7fbe35ce)" style="fill: #1f77b4"/>
   </g>
   <g id="BrokenBarHCollection_9">
    <defs>
     <path id="m6ba8c79dc4" d="M 291.315786 -82.455613 
L 291.315786 -91.106994 
L 345.992026 -91.106994 
L 345.992026 -82.455613 
L 291.315786 -82.455613 
z
" style="stroke: #808080"/>
    </defs>
    <g clip-path="url(#p7a7fbe35ce)">
     <use xlink:href="#m6ba8c79dc4" x="0" y="216" style="fill: #66c2a5; stroke: #808080"/>
    </g>
   </g>
   <g id="BrokenBarHCollection_10">
    <defs>
     <path id="m06261a93f4" d="M 473.569919 -175.624328 
L 473.569919 -184.275709 
L 528.246159 -184.275709 
L 528.246159 -175.624328 
L 473.569919 -175.624328 
z
" style="stroke: #808080"/>
    </defs>
    <g clip-path="url(#p7a7fbe35ce)">
     <use xlink:href="#m06261a93f4" x="0" y="216" style="fill: #66c2a5; stroke: #808080"/>
    </g>
   </g>
   <g id="BrokenBarHCollection_11">
    <defs>
     <path id="m5654f7802d" d="M 309.541199 -109.075246 
L 309.541199 -117.726627 
L 409.780972 -117.726627 
L 409.780972 -109.075246 
L 309.541199 -109.075246 
z
" style="stroke: #808080"/>
    </defs>
    <g clip-path="url(#p7a7fbe35ce)">
     <use xlink:href="#m5654f7802d" x="0" y="216" style="fill: #fc8d62; stroke: #808080"/>
    </g>
   </g>
   <g id="BrokenBarHCollection_12">
    <defs>
     <path id="m4a2e4ccd81" d="M 446.231799 -162.314512 
L 446.231799 -170.965893 
L 528.246159 -170.965893 
L 528.246159 -162.314512 
L 446.231799 -162.314512 
z
" style="stroke: #808080"/>
    </defs>
    <g clip-path="url(#p7a7fbe35ce)">
     <use xlink:href="#m4a2e4ccd81" x="0" y="216" style="fill: #fc8d62; stroke: #808080"/>
    </g>
   </g>
   <g id="BrokenBarHCollection_13">
    <defs>
     <path id="m9255c75734" d="M 355.104732 -175.624328 
L 355.104732 -184.275709 
L 418.893679 -184.275709 
L 418.893679 -175.624328 
L 355.104732 -175.624328 
z
" style="stroke: #808080"/>
    </defs>
    <g clip-path="url(#p7a7fbe35ce)">
     <use xlink:href="#m9255c75734" x="0" y="216" style="fill: #8da0cb; stroke: #808080"/>
    </g>
   </g>
   <g id="BrokenBarHCollection_14">
    <defs>
     <path id="m833a058d50" d="M 227.526839 -109.075246 
L 227.526839 -117.726627 
L 309.541199 -117.726627 
L 309.541199 -109.075246 
L 227.526839 -109.075246 
z
" style="stroke: #808080"/>
    </defs>
    <g clip-path="url(#p7a7fbe35ce)">
     <use xlink:href="#m833a058d50" x="0" y="216" style="fill: #8da0cb; stroke: #808080"/>
    </g>
   </g>
   <g id="BrokenBarHCollection_15">
    <defs>
     <path id="m6d0d0507a5" d="M 172.8506 -149.004695 
L 172.8506 -157.656076 
L 318.653906 -157.656076 
L 318.653906 -149.004695 
L 172.8506 -149.004695 
z
" style="stroke: #808080"/>
    </defs>
    <g clip-path="url(#p7a7fbe35ce)">
     <use xlink:href="#m6d0d0507a5" x="0" y="216" style="fill: #e78ac3; stroke: #808080"/>
    </g>
   </g>
   <g id="BrokenBarHCollection_16">
    <defs>
     <path id="mc41e059c9d" d="M 382.442852 -162.314512 
L 382.442852 -170.965893 
L 446.231799 -170.965893 
L 446.231799 -162.314512 
L 382.442852 -162.314512 
z
" style="stroke: #808080"/>
    </defs>
    <g clip-path="url(#p7a7fbe35ce)">
     <use xlink:href="#mc41e059c9d" x="0" y="216" style="fill: #e78ac3; stroke: #808080"/>
    </g>
   </g>
   <g id="BrokenBarHCollection_17">
    <defs>
     <path id="m22f6528e39" d="M 136.399773 -95.76543 
L 136.399773 -104.41681 
L 218.414133 -104.41681 
L 218.414133 -95.76543 
L 136.399773 -95.76543 
z
" style="stroke: #808080"/>
    </defs>
    <g clip-path="url(#p7a7fbe35ce)">
     <use xlink:href="#m22f6528e39" x="0" y="216" style="fill: #a6d854; stroke: #808080"/>
    </g>
   </g>
   <g id="BrokenBarHCollection_18">
    <defs>
     <path id="m2aa6a3815a" d="M 355.104732 -149.004695 
L 355.104732 -157.656076 
L 519.133452 -157.656076 
L 519.133452 -149.004695 
L 355.104732 -149.004695 
z
" style="stroke: #808080"/>
    </defs>
    <g clip-path="url(#p7a7fbe35ce)">
     <use xlink:href="#m2aa6a3815a" x="0" y="216" style="fill: #a6d854; stroke: #808080"/>
    </g>
   </g>
   <g id="BrokenBarHCollection_19">
    <defs>
     <path id="mc62b68119e" d="M 72.610827 -122.385063 
L 72.610827 -131.036443 
L 191.076013 -131.036443 
L 191.076013 -122.385063 
L 72.610827 -122.385063 
z
" style="stroke: #808080"/>
    </defs>
    <g clip-path="url(#p7a7fbe35ce)">
     <use xlink:href="#mc62b68119e" x="0" y="216" style="fill: #ffd92f; stroke: #808080"/>
    </g>
   </g>
   <g id="BrokenBarHCollection_20">
    <defs>
     <path id="ma96f5b37d5" d="M 227.526839 -135.694879 
L 227.526839 -144.34626 
L 400.668266 -144.34626 
L 400.668266 -135.694879 
L 227.526839 -135.694879 
z
" style="stroke: #808080"/>
    </defs>
    <g clip-path="url(#p7a7fbe35ce)">
     <use xlink:href="#ma96f5b37d5" x="0" y="216" style="fill: #ffd92f; stroke: #808080"/>
    </g>
   </g>
   <g id="BrokenBarHCollection_21">
    <defs>
     <path id="md2ce566678" d="M 418.893679 -175.624328 
L 418.893679 -184.275709 
L 473.569919 -184.275709 
L 473.569919 -175.624328 
L 418.893679 -175.624328 
z
" style="stroke: #808080"/>
    </defs>
    <g clip-path="url(#p7a7fbe35ce)">
     <use xlink:href="#md2ce566678" x="0" y="216" style="fill: #ffd92f; stroke: #808080"/>
    </g>
   </g>
   <g id="BrokenBarHCollection_22">
    <defs>
     <path id="m974995bb21" d="M 191.076013 -82.455613 
L 191.076013 -91.106994 
L 282.203079 -91.106994 
L 282.203079 -82.455613 
L 191.076013 -82.455613 
z
" style="stroke: #808080"/>
    </defs>
    <g clip-path="url(#p7a7fbe35ce)">
     <use xlink:href="#m974995bb21" x="0" y="216" style="fill: #e5c494; stroke: #808080"/>
    </g>
   </g>
   <g id="BrokenBarHCollection_23">
    <defs>
     <path id="m553310388c" d="M 300.428493 -122.385063 
L 300.428493 -131.036443 
L 382.442852 -131.036443 
L 382.442852 -122.385063 
L 300.428493 -122.385063 
z
" style="stroke: #808080"/>
    </defs>
    <g clip-path="url(#p7a7fbe35ce)">
     <use xlink:href="#m553310388c" x="0" y="216" style="fill: #e5c494; stroke: #808080"/>
    </g>
   </g>
   <g id="BrokenBarHCollection_24">
    <defs>
     <path id="m2b445ffe30" d="M 409.780972 -135.694879 
L 409.780972 -144.34626 
L 528.246159 -144.34626 
L 528.246159 -135.694879 
L 409.780972 -135.694879 
z
" style="stroke: #808080"/>
    </defs>
    <g clip-path="url(#p7a7fbe35ce)">
     <use xlink:href="#m2b445ffe30" x="0" y="216" style="fill: #e5c494; stroke: #808080"/>
    </g>
   </g>
   <g id="BrokenBarHCollection_25">
    <defs>
     <path id="m3a8d2aaacc" d="M 200.18872 -122.385063 
L 200.18872 -131.036443 
L 282.203079 -131.036443 
L 282.203079 -122.385063 
L 200.18872 -122.385063 
z
" style="stroke: #808080"/>
    </defs>
    <g clip-path="url(#p7a7fbe35ce)">
     <use xlink:href="#m3a8d2aaacc" x="0" y="216" style="fill: #b3b3b3; stroke: #808080"/>
    </g>
   </g>
   <g id="BrokenBarHCollection_26">
    <defs>
     <path id="m7d3b009601" d="M 63.49812 -82.455613 
L 63.49812 -91.106994 
L 163.737893 -91.106994 
L 163.737893 -82.455613 
L 63.49812 -82.455613 
z
" style="stroke: #808080"/>
    </defs>
    <g clip-path="url(#p7a7fbe35ce)">
     <use xlink:href="#m7d3b009601" x="0" y="216" style="fill: #b3b3b3; stroke: #808080"/>
    </g>
   </g>
   <g id="BrokenBarHCollection_27">
    <defs>
     <path id="m4600b0d3bf" d="M 309.541199 -162.314512 
L 309.541199 -170.965893 
L 382.442852 -170.965893 
L 382.442852 -162.314512 
L 309.541199 -162.314512 
z
" style="stroke: #808080"/>
    </defs>
    <g clip-path="url(#p7a7fbe35ce)">
     <use xlink:href="#m4600b0d3bf" x="0" y="216" style="fill: #b3b3b3; stroke: #808080"/>
    </g>
   </g>
   <g id="BrokenBarHCollection_28">
    <defs>
     <path id="m9b7020e284" d="M 36.16 -44.189891 
L 36.16 -49.513817 
L 72.610827 -49.513817 
L 72.610827 -44.189891 
L 36.16 -44.189891 
z
" style="stroke: #808080"/>
    </defs>
    <g clip-path="url(#p7a7fbe35ce)">
     <use xlink:href="#m9b7020e284" x="0" y="216" style="fill: #ffd92f; stroke: #808080"/>
    </g>
   </g>
   <g id="BrokenBarHCollection_29">
    <defs>
     <path id="mae9acfd9d8" d="M 446.231799 -44.189891 
L 446.231799 -49.513817 
L 473.569919 -49.513817 
L 473.569919 -44.189891 
L 446.231799 -44.189891 
z
" style="stroke: #808080"/>
    </defs>
    <g clip-path="url(#p7a7fbe35ce)">
     <use xlink:href="#mae9acfd9d8" x="0" y="216" style="fill: #66c2a5; stroke: #808080"/>
    </g>
   </g>
   <g id="BrokenBarHCollection_30">
    <defs>
     <path id="m282be8ae59" d="M 418.893679 -44.189891 
L 418.893679 -49.513817 
L 446.231799 -49.513817 
L 446.231799 -44.189891 
L 418.893679 -44.189891 
z
" style="stroke: #808080"/>
    </defs>
    <g clip-path="url(#p7a7fbe35ce)">
     <use xlink:href="#m282be8ae59" x="0" y="216" style="fill: #ffffff; stroke: #808080"/>
    </g>
   </g>
   <g id="BrokenBarHCollection_31">
    <defs>
     <path id="me132620d9a" d="M 382.442852 -44.189891 
L 382.442852 -49.513817 
L 409.780972 -49.513817 
L 409.780972 -44.189891 
L 382.442852 -44.189891 
z
" style="stroke: #808080"/>
    </defs>
    <g clip-path="url(#p7a7fbe35ce)">
     <use xlink:href="#me132620d9a" x="0" y="216" style="fill: #e5c494; stroke: #808080"/>
    </g>
   </g>
   <g id="BrokenBarHCollection_32">
    <defs>
     <path id="m58281e2c06" d="M 364.217439 -44.189891 
L 364.217439 -49.513817 
L 382.442852 -49.513817 
L 382.442852 -44.189891 
L 364.217439 -44.189891 
z
" style="stroke: #808080"/>
    </defs>
    <g clip-path="url(#p7a7fbe35ce)">
     <use xlink:href="#m58281e2c06" x="0" y="216" style="fill: #ffffff; stroke: #808080"/>
    </g>
   </g>
   <g id="BrokenBarHCollection_33">
    <defs>
     <path id="m51ca5a8474" d="M 309.541199 -44.189891 
L 309.541199 -49.513817 
L 355.104732 -49.513817 
L 355.104732 -44.189891 
L 309.541199 -44.189891 
z
" style="stroke: #808080"/>
    </defs>
    <g clip-path="url(#p7a7fbe35ce)">
     <use xlink:href="#m51ca5a8474" x="0" y="216" style="fill: #8da0cb; stroke: #808080"/>
    </g>
   </g>
   <g id="BrokenBarHCollection_34">
    <defs>
     <path id="maea7cf28b7" d="M 409.780972 -44.189891 
L 409.780972 -49.513817 
L 418.893679 -49.513817 
L 418.893679 -44.189891 
L 409.780972 -44.189891 
z
" style="stroke: #808080"/>
    </defs>
    <g clip-path="url(#p7a7fbe35ce)">
     <use xlink:href="#maea7cf28b7" x="0" y="216" style="fill: #ffd92f; stroke: #808080"/>
    </g>
   </g>
   <g id="BrokenBarHCollection_35">
    <defs>
     <path id="m80ed1450f0" d="M 227.526839 -44.189891 
L 227.526839 -49.513817 
L 282.203079 -49.513817 
L 282.203079 -44.189891 
L 227.526839 -44.189891 
z
" style="stroke: #808080"/>
    </defs>
    <g clip-path="url(#p7a7fbe35ce)">
     <use xlink:href="#m80ed1450f0" x="0" y="216" style="fill: #ffffff; stroke: #808080"/>
    </g>
   </g>
   <g id="BrokenBarHCollection_36">
    <defs>
     <path id="m0a6737c191" d="M 200.18872 -44.189891 
L 200.18872 -49.513817 
L 227.526839 -49.513817 
L 227.526839 -44.189891 
L 200.18872 -44.189891 
z
" style="stroke: #808080"/>
    </defs>
    <g clip-path="url(#p7a7fbe35ce)">
     <use xlink:href="#m0a6737c191" x="0" y="216" style="fill: #8da0cb; stroke: #808080"/>
    </g>
   </g>
   <g id="BrokenBarHCollection_37">
    <defs>
     <path id="m1367a8fbc2" d="M 172.8506 -44.189891 
L 172.8506 -49.513817 
L 200.18872 -49.513817 
L 200.18872 -44.189891 
L 172.8506 -44.189891 
z
" style="stroke: #808080"/>
    </defs>
    <g clip-path="url(#p7a7fbe35ce)">
     <use xlink:href="#m1367a8fbc2" x="0" y="216" style="fill: #ffffff; stroke: #808080"/>
    </g>
   </g>
   <g id="BrokenBarHCollection_38">
    <defs>
     <path id="mb2eea3f3d4" d="M 118.17436 -44.189891 
L 118.17436 -49.513817 
L 172.8506 -49.513817 
L 172.8506 -44.189891 
L 118.17436 -44.189891 
z
" style="stroke: #808080"/>
    </defs>
    <g clip-path="url(#p7a7fbe35ce)">
     <use xlink:href="#mb2eea3f3d4" x="0" y="216" style="fill: #e78ac3; stroke: #808080"/>
    </g>
   </g>
   <g id="BrokenBarHCollection_39">
    <defs>
     <path id="m2b8c2d4828" d="M 72.610827 -44.189891 
L 72.610827 -49.513817 
L 118.17436 -49.513817 
L 118.17436 -44.189891 
L 72.610827 -44.189891 
z
" style="stroke: #808080"/>
    </defs>
    <g clip-path="url(#p7a7fbe35ce)">
     <use xlink:href="#m2b8c2d4828" x="0" y="216" style="fill: #ffffff; stroke: #808080"/>
    </g>
   </g>
   <g id="BrokenBarHCollection_40">
    <defs>
     <path id="mcfb78e10d2" d="M 282.203079 -44.189891 
L 282.203079 -49.513817 
L 309.541199 -49.513817 
L 309.541199 -44.189891 
L 282.203079 -44.189891 
z
" style="stroke: #808080"/>
    </defs>
    <g clip-path="url(#p7a7fbe35ce)">
     <use xlink:href="#mcfb78e10d2" x="0" y="216" style="fill: #fc8d62; stroke: #808080"/>
    </g>
   </g>
   <g id="BrokenBarHCollection_41">
    <path d="M 300.428493 158.500293 
L 300.428493 153.176366 
L 309.541199 153.176366 
L 309.541199 158.500293 
L 300.428493 158.500293 
z
" clip-path="url(#p7a7fbe35ce)" style="fill: #b3b3b3; stroke-dasharray: 3.7,1.6; stroke-dashoffset: 0; stroke: #808080"/>
   </g>
   <g id="BrokenBarHCollection_42">
    <path d="M 409.780972 158.500293 
L 409.780972 153.176366 
L 446.231799 153.176366 
L 446.231799 158.500293 
L 409.780972 158.500293 
z
" clip-path="url(#p7a7fbe35ce)" style="fill: #fc8d62; stroke-dasharray: 3.7,1.6; stroke-dashoffset: 0; stroke: #808080"/>
   </g>
   <g id="BrokenBarHCollection_43">
    <path d="M 391.555559 158.500293 
L 391.555559 153.176366 
L 409.780972 153.176366 
L 409.780972 158.500293 
L 391.555559 158.500293 
z
" clip-path="url(#p7a7fbe35ce)" style="fill: #ffffff; stroke-dasharray: 3.7,1.6; stroke-dashoffset: 0; stroke: #808080"/>
   </g>
   <g id="BrokenBarHCollection_44">
    <path d="M 355.104732 158.500293 
L 355.104732 153.176366 
L 382.442852 153.176366 
L 382.442852 158.500293 
L 355.104732 158.500293 
z
" clip-path="url(#p7a7fbe35ce)" style="fill: #e78ac3; stroke-dasharray: 3.7,1.6; stroke-dashoffset: 0; stroke: #808080"/>
   </g>
   <g id="BrokenBarHCollection_45">
    <path d="M 336.879319 158.500293 
L 336.879319 153.176366 
L 355.104732 153.176366 
L 355.104732 158.500293 
L 336.879319 158.500293 
z
" clip-path="url(#p7a7fbe35ce)" style="fill: #a6d854; stroke-dasharray: 3.7,1.6; stroke-dashoffset: 0; stroke: #808080"/>
   </g>
   <g id="BrokenBarHCollection_46">
    <path d="M 309.541199 158.500293 
L 309.541199 153.176366 
L 336.879319 153.176366 
L 336.879319 158.500293 
L 309.541199 158.500293 
z
" clip-path="url(#p7a7fbe35ce)" style="fill: #ffffff; stroke-dasharray: 3.7,1.6; stroke-dashoffset: 0; stroke: #808080"/>
   </g>
   <g id="BrokenBarHCollection_47">
    <path d="M 291.315786 158.500293 
L 291.315786 153.176366 
L 300.428493 153.176366 
L 300.428493 158.500293 
L 291.315786 158.500293 
z
" clip-path="url(#p7a7fbe35ce)" style="fill: #e5c494; stroke-dasharray: 3.7,1.6; stroke-dashoffset: 0; stroke: #808080"/>
   </g>
   <g id="BrokenBarHCollection_48">
    <path d="M 99.948946 158.500293 
L 99.948946 153.176366 
L 136.399773 153.176366 
L 136.399773 158.500293 
L 99.948946 158.500293 
z
" clip-path="url(#p7a7fbe35ce)" style="fill: #a6d854; stroke-dasharray: 3.7,1.6; stroke-dashoffset: 0; stroke: #808080"/>
   </g>
   <g id="BrokenBarHCollection_49">
    <path d="M 227.526839 158.500293 
L 227.526839 153.176366 
L 263.977666 153.176366 
L 263.977666 158.500293 
L 227.526839 158.500293 
z
" clip-path="url(#p7a7fbe35ce)" style="fill: #ffffff; stroke-dasharray: 3.7,1.6; stroke-dashoffset: 0; stroke: #808080"/>
   </g>
   <g id="BrokenBarHCollection_50">
    <path d="M 200.18872 158.500293 
L 200.18872 153.176366 
L 227.526839 153.176366 
L 227.526839 158.500293 
L 200.18872 158.500293 
z
" clip-path="url(#p7a7fbe35ce)" style="fill: #ffd92f; stroke-dasharray: 3.7,1.6; stroke-dashoffset: 0; stroke: #808080"/>
   </g>
   <g id="BrokenBarHCollection_51">
    <path d="M 191.076013 158.500293 
L 191.076013 153.176366 
L 200.18872 153.176366 
L 200.18872 158.500293 
L 191.076013 158.500293 
z
" clip-path="url(#p7a7fbe35ce)" style="fill: #b3b3b3; stroke-dasharray: 3.7,1.6; stroke-dashoffset: 0; stroke: #808080"/>
   </g>
   <g id="BrokenBarHCollection_52">
    <path d="M 163.737893 158.500293 
L 163.737893 153.176366 
L 191.076013 153.176366 
L 191.076013 158.500293 
L 163.737893 158.500293 
z
" clip-path="url(#p7a7fbe35ce)" style="fill: #e5c494; stroke-dasharray: 3.7,1.6; stroke-dashoffset: 0; stroke: #808080"/>
   </g>
   <g id="BrokenBarHCollection_53">
    <path d="M 136.399773 158.500293 
L 136.399773 153.176366 
L 163.737893 153.176366 
L 163.737893 158.500293 
L 136.399773 158.500293 
z
" clip-path="url(#p7a7fbe35ce)" style="fill: #ffffff; stroke-dasharray: 3.7,1.6; stroke-dashoffset: 0; stroke: #808080"/>
   </g>
   <g id="BrokenBarHCollection_54">
    <path d="M 63.49812 158.500293 
L 63.49812 153.176366 
L 99.948946 153.176366 
L 99.948946 158.500293 
L 63.49812 158.500293 
z
" clip-path="url(#p7a7fbe35ce)" style="fill: #ffffff; stroke-dasharray: 3.7,1.6; stroke-dashoffset: 0; stroke: #808080"/>
   </g>
   <g id="BrokenBarHCollection_55">
    <path d="M 36.16 158.500293 
L 36.16 153.176366 
L 63.49812 153.176366 
L 63.49812 158.500293 
L 36.16 158.500293 
z
" clip-path="url(#p7a7fbe35ce)" style="fill: #b3b3b3; stroke-dasharray: 3.7,1.6; stroke-dashoffset: 0; stroke: #808080"/>
   </g>
   <g id="BrokenBarHCollection_56">
    <path d="M 263.977666 158.500293 
L 263.977666 153.176366 
L 291.315786 153.176366 
L 291.315786 158.500293 
L 263.977666 158.500293 
z
" clip-path="url(#p7a7fbe35ce)" style="fill: #66c2a5; stroke-dasharray: 3.7,1.6; stroke-dashoffset: 0; stroke: #808080"/>
   </g>
   <g id="matplotlib.axis_1">
    <g id="xtick_1">
     <g id="line2d_1">
      <defs>
       <path id="ma783df36f1" d="M 0 0 
L 0 3.5 
" style="stroke: #000000; stroke-width: 0.8"/>
      </defs>
      <g>
       <use xlink:href="#ma783df36f1" x="36.16" y="178.8144" style="stroke: #000000; stroke-width: 0.8"/>
      </g>
     </g>
     <g id="text_1">
      <!-- 0 -->
      <g transform="translate(34.25125 190.373462) scale(0.06 -0.06)">
       <defs>
        <path id="DejaVuSans-30" d="M 2034 4250 
Q 1547 4250 1301 3770 
Q 1056 3291 1056 2328 
Q 1056 1369 1301 889 
Q 1547 409 2034 409 
Q 2525 409 2770 889 
Q 3016 1369 3016 2328 
Q 3016 3291 2770 3770 
Q 2525 4250 2034 4250 
z
M 2034 4750 
Q 2819 4750 3233 4129 
Q 3647 3509 3647 2328 
Q 3647 1150 3233 529 
Q 2819 -91 2034 -91 
Q 1250 -91 836 529 
Q 422 1150 422 2328 
Q 422 3509 836 4129 
Q 1250 4750 2034 4750 
z
" transform="scale(0.015625)"/>
       </defs>
       <use xlink:href="#DejaVuSans-30"/>
      </g>
     </g>
    </g>
    <g id="xtick_2">
     <g id="line2d_2">
      <g>
       <use xlink:href="#ma783df36f1" x="58.941767" y="178.8144" style="stroke: #000000; stroke-width: 0.8"/>
      </g>
     </g>
     <g id="text_2">
      <!-- 5 -->
      <g transform="translate(57.033017 190.373462) scale(0.06 -0.06)">
       <defs>
        <path id="DejaVuSans-35" d="M 691 4666 
L 3169 4666 
L 3169 4134 
L 1269 4134 
L 1269 2991 
Q 1406 3038 1543 3061 
Q 1681 3084 1819 3084 
Q 2600 3084 3056 2656 
Q 3513 2228 3513 1497 
Q 3513 744 3044 326 
Q 2575 -91 1722 -91 
Q 1428 -91 1123 -41 
Q 819 9 494 109 
L 494 744 
Q 775 591 1075 516 
Q 1375 441 1709 441 
Q 2250 441 2565 725 
Q 2881 1009 2881 1497 
Q 2881 1984 2565 2268 
Q 2250 2553 1709 2553 
Q 1456 2553 1204 2497 
Q 953 2441 691 2322 
L 691 4666 
z
" transform="scale(0.015625)"/>
       </defs>
       <use xlink:href="#DejaVuSans-35"/>
      </g>
     </g>
    </g>
    <g id="xtick_3">
     <g id="line2d_3">
      <g>
       <use xlink:href="#ma783df36f1" x="81.723533" y="178.8144" style="stroke: #000000; stroke-width: 0.8"/>
      </g>
     </g>
     <g id="text_3">
      <!-- 10 -->
      <g transform="translate(77.906033 190.373462) scale(0.06 -0.06)">
       <defs>
        <path id="DejaVuSans-31" d="M 794 531 
L 1825 531 
L 1825 4091 
L 703 3866 
L 703 4441 
L 1819 4666 
L 2450 4666 
L 2450 531 
L 3481 531 
L 3481 0 
L 794 0 
L 794 531 
z
" transform="scale(0.015625)"/>
       </defs>
       <use xlink:href="#DejaVuSans-31"/>
       <use xlink:href="#DejaVuSans-30" x="63.623047"/>
      </g>
     </g>
    </g>
    <g id="xtick_4">
     <g id="line2d_4">
      <g>
       <use xlink:href="#ma783df36f1" x="104.5053" y="178.8144" style="stroke: #000000; stroke-width: 0.8"/>
      </g>
     </g>
     <g id="text_4">
      <!-- 15 -->
      <g transform="translate(100.6878 190.373462) scale(0.06 -0.06)">
       <use xlink:href="#DejaVuSans-31"/>
       <use xlink:href="#DejaVuSans-35" x="63.623047"/>
      </g>
     </g>
    </g>
    <g id="xtick_5">
     <g id="line2d_5">
      <g>
       <use xlink:href="#ma783df36f1" x="127.287066" y="178.8144" style="stroke: #000000; stroke-width: 0.8"/>
      </g>
     </g>
     <g id="text_5">
      <!-- 20 -->
      <g transform="translate(123.469566 190.373462) scale(0.06 -0.06)">
       <defs>
        <path id="DejaVuSans-32" d="M 1228 531 
L 3431 531 
L 3431 0 
L 469 0 
L 469 531 
Q 828 903 1448 1529 
Q 2069 2156 2228 2338 
Q 2531 2678 2651 2914 
Q 2772 3150 2772 3378 
Q 2772 3750 2511 3984 
Q 2250 4219 1831 4219 
Q 1534 4219 1204 4116 
Q 875 4013 500 3803 
L 500 4441 
Q 881 4594 1212 4672 
Q 1544 4750 1819 4750 
Q 2544 4750 2975 4387 
Q 3406 4025 3406 3419 
Q 3406 3131 3298 2873 
Q 3191 2616 2906 2266 
Q 2828 2175 2409 1742 
Q 1991 1309 1228 531 
z
" transform="scale(0.015625)"/>
       </defs>
       <use xlink:href="#DejaVuSans-32"/>
       <use xlink:href="#DejaVuSans-30" x="63.623047"/>
      </g>
     </g>
    </g>
    <g id="xtick_6">
     <g id="line2d_6">
      <g>
       <use xlink:href="#ma783df36f1" x="150.068833" y="178.8144" style="stroke: #000000; stroke-width: 0.8"/>
      </g>
     </g>
     <g id="text_6">
      <!-- 25 -->
      <g transform="translate(146.251333 190.373462) scale(0.06 -0.06)">
       <use xlink:href="#DejaVuSans-32"/>
       <use xlink:href="#DejaVuSans-35" x="63.623047"/>
      </g>
     </g>
    </g>
    <g id="xtick_7">
     <g id="line2d_7">
      <g>
       <use xlink:href="#ma783df36f1" x="172.8506" y="178.8144" style="stroke: #000000; stroke-width: 0.8"/>
      </g>
     </g>
     <g id="text_7">
      <!-- 30 -->
      <g transform="translate(169.0331 190.373462) scale(0.06 -0.06)">
       <defs>
        <path id="DejaVuSans-33" d="M 2597 2516 
Q 3050 2419 3304 2112 
Q 3559 1806 3559 1356 
Q 3559 666 3084 287 
Q 2609 -91 1734 -91 
Q 1441 -91 1130 -33 
Q 819 25 488 141 
L 488 750 
Q 750 597 1062 519 
Q 1375 441 1716 441 
Q 2309 441 2620 675 
Q 2931 909 2931 1356 
Q 2931 1769 2642 2001 
Q 2353 2234 1838 2234 
L 1294 2234 
L 1294 2753 
L 1863 2753 
Q 2328 2753 2575 2939 
Q 2822 3125 2822 3475 
Q 2822 3834 2567 4026 
Q 2313 4219 1838 4219 
Q 1578 4219 1281 4162 
Q 984 4106 628 3988 
L 628 4550 
Q 988 4650 1302 4700 
Q 1616 4750 1894 4750 
Q 2613 4750 3031 4423 
Q 3450 4097 3450 3541 
Q 3450 3153 3228 2886 
Q 3006 2619 2597 2516 
z
" transform="scale(0.015625)"/>
       </defs>
       <use xlink:href="#DejaVuSans-33"/>
       <use xlink:href="#DejaVuSans-30" x="63.623047"/>
      </g>
     </g>
    </g>
    <g id="xtick_8">
     <g id="line2d_8">
      <g>
       <use xlink:href="#ma783df36f1" x="195.632366" y="178.8144" style="stroke: #000000; stroke-width: 0.8"/>
      </g>
     </g>
     <g id="text_8">
      <!-- 35 -->
      <g transform="translate(191.814866 190.373462) scale(0.06 -0.06)">
       <use xlink:href="#DejaVuSans-33"/>
       <use xlink:href="#DejaVuSans-35" x="63.623047"/>
      </g>
     </g>
    </g>
    <g id="xtick_9">
     <g id="line2d_9">
      <g>
       <use xlink:href="#ma783df36f1" x="218.414133" y="178.8144" style="stroke: #000000; stroke-width: 0.8"/>
      </g>
     </g>
     <g id="text_9">
      <!-- 40 -->
      <g transform="translate(214.596633 190.373462) scale(0.06 -0.06)">
       <defs>
        <path id="DejaVuSans-34" d="M 2419 4116 
L 825 1625 
L 2419 1625 
L 2419 4116 
z
M 2253 4666 
L 3047 4666 
L 3047 1625 
L 3713 1625 
L 3713 1100 
L 3047 1100 
L 3047 0 
L 2419 0 
L 2419 1100 
L 313 1100 
L 313 1709 
L 2253 4666 
z
" transform="scale(0.015625)"/>
       </defs>
       <use xlink:href="#DejaVuSans-34"/>
       <use xlink:href="#DejaVuSans-30" x="63.623047"/>
      </g>
     </g>
    </g>
    <g id="xtick_10">
     <g id="line2d_10">
      <g>
       <use xlink:href="#ma783df36f1" x="241.195899" y="178.8144" style="stroke: #000000; stroke-width: 0.8"/>
      </g>
     </g>
     <g id="text_10">
      <!-- 45 -->
      <g transform="translate(237.378399 190.373462) scale(0.06 -0.06)">
       <use xlink:href="#DejaVuSans-34"/>
       <use xlink:href="#DejaVuSans-35" x="63.623047"/>
      </g>
     </g>
    </g>
    <g id="xtick_11">
     <g id="line2d_11">
      <g>
       <use xlink:href="#ma783df36f1" x="263.977666" y="178.8144" style="stroke: #000000; stroke-width: 0.8"/>
      </g>
     </g>
     <g id="text_11">
      <!-- 50 -->
      <g transform="translate(260.160166 190.373462) scale(0.06 -0.06)">
       <use xlink:href="#DejaVuSans-35"/>
       <use xlink:href="#DejaVuSans-30" x="63.623047"/>
      </g>
     </g>
    </g>
    <g id="xtick_12">
     <g id="line2d_12">
      <g>
       <use xlink:href="#ma783df36f1" x="286.759433" y="178.8144" style="stroke: #000000; stroke-width: 0.8"/>
      </g>
     </g>
     <g id="text_12">
      <!-- 55 -->
      <g transform="translate(282.941933 190.373462) scale(0.06 -0.06)">
       <use xlink:href="#DejaVuSans-35"/>
       <use xlink:href="#DejaVuSans-35" x="63.623047"/>
      </g>
     </g>
    </g>
    <g id="xtick_13">
     <g id="line2d_13">
      <g>
       <use xlink:href="#ma783df36f1" x="309.541199" y="178.8144" style="stroke: #000000; stroke-width: 0.8"/>
      </g>
     </g>
     <g id="text_13">
      <!-- 60 -->
      <g transform="translate(305.723699 190.373462) scale(0.06 -0.06)">
       <defs>
        <path id="DejaVuSans-36" d="M 2113 2584 
Q 1688 2584 1439 2293 
Q 1191 2003 1191 1497 
Q 1191 994 1439 701 
Q 1688 409 2113 409 
Q 2538 409 2786 701 
Q 3034 994 3034 1497 
Q 3034 2003 2786 2293 
Q 2538 2584 2113 2584 
z
M 3366 4563 
L 3366 3988 
Q 3128 4100 2886 4159 
Q 2644 4219 2406 4219 
Q 1781 4219 1451 3797 
Q 1122 3375 1075 2522 
Q 1259 2794 1537 2939 
Q 1816 3084 2150 3084 
Q 2853 3084 3261 2657 
Q 3669 2231 3669 1497 
Q 3669 778 3244 343 
Q 2819 -91 2113 -91 
Q 1303 -91 875 529 
Q 447 1150 447 2328 
Q 447 3434 972 4092 
Q 1497 4750 2381 4750 
Q 2619 4750 2861 4703 
Q 3103 4656 3366 4563 
z
" transform="scale(0.015625)"/>
       </defs>
       <use xlink:href="#DejaVuSans-36"/>
       <use xlink:href="#DejaVuSans-30" x="63.623047"/>
      </g>
     </g>
    </g>
    <g id="xtick_14">
     <g id="line2d_14">
      <g>
       <use xlink:href="#ma783df36f1" x="332.322966" y="178.8144" style="stroke: #000000; stroke-width: 0.8"/>
      </g>
     </g>
     <g id="text_14">
      <!-- 65 -->
      <g transform="translate(328.505466 190.373462) scale(0.06 -0.06)">
       <use xlink:href="#DejaVuSans-36"/>
       <use xlink:href="#DejaVuSans-35" x="63.623047"/>
      </g>
     </g>
    </g>
    <g id="xtick_15">
     <g id="line2d_15">
      <g>
       <use xlink:href="#ma783df36f1" x="355.104732" y="178.8144" style="stroke: #000000; stroke-width: 0.8"/>
      </g>
     </g>
     <g id="text_15">
      <!-- 70 -->
      <g transform="translate(351.287232 190.373462) scale(0.06 -0.06)">
       <defs>
        <path id="DejaVuSans-37" d="M 525 4666 
L 3525 4666 
L 3525 4397 
L 1831 0 
L 1172 0 
L 2766 4134 
L 525 4134 
L 525 4666 
z
" transform="scale(0.015625)"/>
       </defs>
       <use xlink:href="#DejaVuSans-37"/>
       <use xlink:href="#DejaVuSans-30" x="63.623047"/>
      </g>
     </g>
    </g>
    <g id="xtick_16">
     <g id="line2d_16">
      <g>
       <use xlink:href="#ma783df36f1" x="377.886499" y="178.8144" style="stroke: #000000; stroke-width: 0.8"/>
      </g>
     </g>
     <g id="text_16">
      <!-- 75 -->
      <g transform="translate(374.068999 190.373462) scale(0.06 -0.06)">
       <use xlink:href="#DejaVuSans-37"/>
       <use xlink:href="#DejaVuSans-35" x="63.623047"/>
      </g>
     </g>
    </g>
    <g id="xtick_17">
     <g id="line2d_17">
      <g>
       <use xlink:href="#ma783df36f1" x="400.668266" y="178.8144" style="stroke: #000000; stroke-width: 0.8"/>
      </g>
     </g>
     <g id="text_17">
      <!-- 80 -->
      <g transform="translate(396.850766 190.373462) scale(0.06 -0.06)">
       <defs>
        <path id="DejaVuSans-38" d="M 2034 2216 
Q 1584 2216 1326 1975 
Q 1069 1734 1069 1313 
Q 1069 891 1326 650 
Q 1584 409 2034 409 
Q 2484 409 2743 651 
Q 3003 894 3003 1313 
Q 3003 1734 2745 1975 
Q 2488 2216 2034 2216 
z
M 1403 2484 
Q 997 2584 770 2862 
Q 544 3141 544 3541 
Q 544 4100 942 4425 
Q 1341 4750 2034 4750 
Q 2731 4750 3128 4425 
Q 3525 4100 3525 3541 
Q 3525 3141 3298 2862 
Q 3072 2584 2669 2484 
Q 3125 2378 3379 2068 
Q 3634 1759 3634 1313 
Q 3634 634 3220 271 
Q 2806 -91 2034 -91 
Q 1263 -91 848 271 
Q 434 634 434 1313 
Q 434 1759 690 2068 
Q 947 2378 1403 2484 
z
M 1172 3481 
Q 1172 3119 1398 2916 
Q 1625 2713 2034 2713 
Q 2441 2713 2670 2916 
Q 2900 3119 2900 3481 
Q 2900 3844 2670 4047 
Q 2441 4250 2034 4250 
Q 1625 4250 1398 4047 
Q 1172 3844 1172 3481 
z
" transform="scale(0.015625)"/>
       </defs>
       <use xlink:href="#DejaVuSans-38"/>
       <use xlink:href="#DejaVuSans-30" x="63.623047"/>
      </g>
     </g>
    </g>
    <g id="xtick_18">
     <g id="line2d_18">
      <g>
       <use xlink:href="#ma783df36f1" x="423.450032" y="178.8144" style="stroke: #000000; stroke-width: 0.8"/>
      </g>
     </g>
     <g id="text_18">
      <!-- 85 -->
      <g transform="translate(419.632532 190.373462) scale(0.06 -0.06)">
       <use xlink:href="#DejaVuSans-38"/>
       <use xlink:href="#DejaVuSans-35" x="63.623047"/>
      </g>
     </g>
    </g>
    <g id="xtick_19">
     <g id="line2d_19">
      <g>
       <use xlink:href="#ma783df36f1" x="446.231799" y="178.8144" style="stroke: #000000; stroke-width: 0.8"/>
      </g>
     </g>
     <g id="text_19">
      <!-- 90 -->
      <g transform="translate(442.414299 190.373462) scale(0.06 -0.06)">
       <defs>
        <path id="DejaVuSans-39" d="M 703 97 
L 703 672 
Q 941 559 1184 500 
Q 1428 441 1663 441 
Q 2288 441 2617 861 
Q 2947 1281 2994 2138 
Q 2813 1869 2534 1725 
Q 2256 1581 1919 1581 
Q 1219 1581 811 2004 
Q 403 2428 403 3163 
Q 403 3881 828 4315 
Q 1253 4750 1959 4750 
Q 2769 4750 3195 4129 
Q 3622 3509 3622 2328 
Q 3622 1225 3098 567 
Q 2575 -91 1691 -91 
Q 1453 -91 1209 -44 
Q 966 3 703 97 
z
M 1959 2075 
Q 2384 2075 2632 2365 
Q 2881 2656 2881 3163 
Q 2881 3666 2632 3958 
Q 2384 4250 1959 4250 
Q 1534 4250 1286 3958 
Q 1038 3666 1038 3163 
Q 1038 2656 1286 2365 
Q 1534 2075 1959 2075 
z
" transform="scale(0.015625)"/>
       </defs>
       <use xlink:href="#DejaVuSans-39"/>
       <use xlink:href="#DejaVuSans-30" x="63.623047"/>
      </g>
     </g>
    </g>
    <g id="xtick_20">
     <g id="line2d_20">
      <g>
       <use xlink:href="#ma783df36f1" x="469.013565" y="178.8144" style="stroke: #000000; stroke-width: 0.8"/>
      </g>
     </g>
     <g id="text_20">
      <!-- 95 -->
      <g transform="translate(465.196065 190.373462) scale(0.06 -0.06)">
       <use xlink:href="#DejaVuSans-39"/>
       <use xlink:href="#DejaVuSans-35" x="63.623047"/>
      </g>
     </g>
    </g>
    <g id="xtick_21">
     <g id="line2d_21">
      <g>
       <use xlink:href="#ma783df36f1" x="491.795332" y="178.8144" style="stroke: #000000; stroke-width: 0.8"/>
      </g>
     </g>
     <g id="text_21">
      <!-- 100 -->
      <g transform="translate(486.069082 190.373462) scale(0.06 -0.06)">
       <use xlink:href="#DejaVuSans-31"/>
       <use xlink:href="#DejaVuSans-30" x="63.623047"/>
       <use xlink:href="#DejaVuSans-30" x="127.246094"/>
      </g>
     </g>
    </g>
    <g id="xtick_22">
     <g id="line2d_22">
      <g>
       <use xlink:href="#ma783df36f1" x="514.577099" y="178.8144" style="stroke: #000000; stroke-width: 0.8"/>
      </g>
     </g>
     <g id="text_22">
      <!-- 105 -->
      <g transform="translate(508.850849 190.373462) scale(0.06 -0.06)">
       <use xlink:href="#DejaVuSans-31"/>
       <use xlink:href="#DejaVuSans-30" x="63.623047"/>
       <use xlink:href="#DejaVuSans-35" x="127.246094"/>
      </g>
     </g>
    </g>
   </g>
   <g id="matplotlib.axis_2">
    <g id="ytick_1">
     <g id="line2d_23">
      <defs>
       <path id="m8a78d60e30" d="M 0 0 
L -3.5 0 
" style="stroke: #000000; stroke-width: 0.8"/>
      </defs>
      <g>
       <use xlink:href="#m8a78d60e30" x="36.16" y="169.148146" style="stroke: #000000; stroke-width: 0.8"/>
      </g>
     </g>
     <g id="text_23">
      <!-- Agv1 -->
      <g transform="translate(13.877813 171.427677) scale(0.06 -0.06)">
       <defs>
        <path id="DejaVuSans-41" d="M 2188 4044 
L 1331 1722 
L 3047 1722 
L 2188 4044 
z
M 1831 4666 
L 2547 4666 
L 4325 0 
L 3669 0 
L 3244 1197 
L 1141 1197 
L 716 0 
L 50 0 
L 1831 4666 
z
" transform="scale(0.015625)"/>
        <path id="DejaVuSans-67" d="M 2906 1791 
Q 2906 2416 2648 2759 
Q 2391 3103 1925 3103 
Q 1463 3103 1205 2759 
Q 947 2416 947 1791 
Q 947 1169 1205 825 
Q 1463 481 1925 481 
Q 2391 481 2648 825 
Q 2906 1169 2906 1791 
z
M 3481 434 
Q 3481 -459 3084 -895 
Q 2688 -1331 1869 -1331 
Q 1566 -1331 1297 -1286 
Q 1028 -1241 775 -1147 
L 775 -588 
Q 1028 -725 1275 -790 
Q 1522 -856 1778 -856 
Q 2344 -856 2625 -561 
Q 2906 -266 2906 331 
L 2906 616 
Q 2728 306 2450 153 
Q 2172 0 1784 0 
Q 1141 0 747 490 
Q 353 981 353 1791 
Q 353 2603 747 3093 
Q 1141 3584 1784 3584 
Q 2172 3584 2450 3431 
Q 2728 3278 2906 2969 
L 2906 3500 
L 3481 3500 
L 3481 434 
z
" transform="scale(0.015625)"/>
        <path id="DejaVuSans-76" d="M 191 3500 
L 800 3500 
L 1894 563 
L 2988 3500 
L 3597 3500 
L 2284 0 
L 1503 0 
L 191 3500 
z
" transform="scale(0.015625)"/>
       </defs>
       <use xlink:href="#DejaVuSans-41"/>
       <use xlink:href="#DejaVuSans-67" x="68.408203"/>
       <use xlink:href="#DejaVuSans-76" x="131.884766"/>
       <use xlink:href="#DejaVuSans-31" x="191.064453"/>
      </g>
     </g>
    </g>
    <g id="ytick_2">
     <g id="line2d_24">
      <g>
       <use xlink:href="#m8a78d60e30" x="36.16" y="155.838329" style="stroke: #000000; stroke-width: 0.8"/>
      </g>
     </g>
     <g id="text_24">
      <!-- Agv2 -->
      <g transform="translate(13.877813 158.117861) scale(0.06 -0.06)">
       <use xlink:href="#DejaVuSans-41"/>
       <use xlink:href="#DejaVuSans-67" x="68.408203"/>
       <use xlink:href="#DejaVuSans-76" x="131.884766"/>
       <use xlink:href="#DejaVuSans-32" x="191.064453"/>
      </g>
     </g>
    </g>
    <g id="ytick_3">
     <g id="line2d_25">
      <g>
       <use xlink:href="#m8a78d60e30" x="36.16" y="142.528513" style="stroke: #000000; stroke-width: 0.8"/>
      </g>
     </g>
     <g id="text_25">
      <!-- Depot -->
      <g transform="translate(11.015625 144.808044) scale(0.06 -0.06)">
       <defs>
        <path id="DejaVuSans-44" d="M 1259 4147 
L 1259 519 
L 2022 519 
Q 2988 519 3436 956 
Q 3884 1394 3884 2338 
Q 3884 3275 3436 3711 
Q 2988 4147 2022 4147 
L 1259 4147 
z
M 628 4666 
L 1925 4666 
Q 3281 4666 3915 4102 
Q 4550 3538 4550 2338 
Q 4550 1131 3912 565 
Q 3275 0 1925 0 
L 628 0 
L 628 4666 
z
" transform="scale(0.015625)"/>
        <path id="DejaVuSans-65" d="M 3597 1894 
L 3597 1613 
L 953 1613 
Q 991 1019 1311 708 
Q 1631 397 2203 397 
Q 2534 397 2845 478 
Q 3156 559 3463 722 
L 3463 178 
Q 3153 47 2828 -22 
Q 2503 -91 2169 -91 
Q 1331 -91 842 396 
Q 353 884 353 1716 
Q 353 2575 817 3079 
Q 1281 3584 2069 3584 
Q 2775 3584 3186 3129 
Q 3597 2675 3597 1894 
z
M 3022 2063 
Q 3016 2534 2758 2815 
Q 2500 3097 2075 3097 
Q 1594 3097 1305 2825 
Q 1016 2553 972 2059 
L 3022 2063 
z
" transform="scale(0.015625)"/>
        <path id="DejaVuSans-70" d="M 1159 525 
L 1159 -1331 
L 581 -1331 
L 581 3500 
L 1159 3500 
L 1159 2969 
Q 1341 3281 1617 3432 
Q 1894 3584 2278 3584 
Q 2916 3584 3314 3078 
Q 3713 2572 3713 1747 
Q 3713 922 3314 415 
Q 2916 -91 2278 -91 
Q 1894 -91 1617 61 
Q 1341 213 1159 525 
z
M 3116 1747 
Q 3116 2381 2855 2742 
Q 2594 3103 2138 3103 
Q 1681 3103 1420 2742 
Q 1159 2381 1159 1747 
Q 1159 1113 1420 752 
Q 1681 391 2138 391 
Q 2594 391 2855 752 
Q 3116 1113 3116 1747 
z
" transform="scale(0.015625)"/>
        <path id="DejaVuSans-6f" d="M 1959 3097 
Q 1497 3097 1228 2736 
Q 959 2375 959 1747 
Q 959 1119 1226 758 
Q 1494 397 1959 397 
Q 2419 397 2687 759 
Q 2956 1122 2956 1747 
Q 2956 2369 2687 2733 
Q 2419 3097 1959 3097 
z
M 1959 3584 
Q 2709 3584 3137 3096 
Q 3566 2609 3566 1747 
Q 3566 888 3137 398 
Q 2709 -91 1959 -91 
Q 1206 -91 779 398 
Q 353 888 353 1747 
Q 353 2609 779 3096 
Q 1206 3584 1959 3584 
z
" transform="scale(0.015625)"/>
        <path id="DejaVuSans-74" d="M 1172 4494 
L 1172 3500 
L 2356 3500 
L 2356 3053 
L 1172 3053 
L 1172 1153 
Q 1172 725 1289 603 
Q 1406 481 1766 481 
L 2356 481 
L 2356 0 
L 1766 0 
Q 1100 0 847 248 
Q 594 497 594 1153 
L 594 3053 
L 172 3053 
L 172 3500 
L 594 3500 
L 594 4494 
L 1172 4494 
z
" transform="scale(0.015625)"/>
       </defs>
       <use xlink:href="#DejaVuSans-44"/>
       <use xlink:href="#DejaVuSans-65" x="77.001953"/>
       <use xlink:href="#DejaVuSans-70" x="138.525391"/>
       <use xlink:href="#DejaVuSans-6f" x="202.001953"/>
       <use xlink:href="#DejaVuSans-74" x="263.183594"/>
      </g>
     </g>
    </g>
    <g id="ytick_4">
     <g id="line2d_26">
      <g>
       <use xlink:href="#m8a78d60e30" x="36.16" y="129.218696" style="stroke: #000000; stroke-width: 0.8"/>
      </g>
     </g>
     <g id="text_26">
      <!-- $m_{1}$ -->
      <g transform="translate(20.46 131.498228) scale(0.06 -0.06)">
       <defs>
        <path id="DejaVuSans-Oblique-6d" d="M 5747 2113 
L 5338 0 
L 4763 0 
L 5166 2094 
Q 5191 2228 5203 2325 
Q 5216 2422 5216 2491 
Q 5216 2772 5059 2928 
Q 4903 3084 4622 3084 
Q 4203 3084 3875 2770 
Q 3547 2456 3450 1953 
L 3066 0 
L 2491 0 
L 2900 2094 
Q 2925 2209 2937 2307 
Q 2950 2406 2950 2484 
Q 2950 2769 2794 2926 
Q 2638 3084 2363 3084 
Q 1938 3084 1609 2770 
Q 1281 2456 1184 1953 
L 800 0 
L 225 0 
L 909 3500 
L 1484 3500 
L 1375 2956 
Q 1609 3263 1923 3423 
Q 2238 3584 2597 3584 
Q 2978 3584 3223 3384 
Q 3469 3184 3519 2828 
Q 3781 3197 4126 3390 
Q 4472 3584 4856 3584 
Q 5306 3584 5551 3325 
Q 5797 3066 5797 2591 
Q 5797 2488 5784 2364 
Q 5772 2241 5747 2113 
z
" transform="scale(0.015625)"/>
       </defs>
       <use xlink:href="#DejaVuSans-Oblique-6d"/>
       <use xlink:href="#DejaVuSans-31" transform="translate(97.412109 -16.40625) scale(0.7)"/>
      </g>
     </g>
    </g>
    <g id="ytick_5">
     <g id="line2d_27">
      <g>
       <use xlink:href="#m8a78d60e30" x="36.16" y="115.90888" style="stroke: #000000; stroke-width: 0.8"/>
      </g>
     </g>
     <g id="text_27">
      <!-- $m_{2}$ -->
      <g transform="translate(20.46 118.188411) scale(0.06 -0.06)">
       <use xlink:href="#DejaVuSans-Oblique-6d"/>
       <use xlink:href="#DejaVuSans-32" transform="translate(97.412109 -16.40625) scale(0.7)"/>
      </g>
     </g>
    </g>
    <g id="ytick_6">
     <g id="line2d_28">
      <g>
       <use xlink:href="#m8a78d60e30" x="36.16" y="102.599064" style="stroke: #000000; stroke-width: 0.8"/>
      </g>
     </g>
     <g id="text_28">
      <!-- $m_{3}$ -->
      <g transform="translate(20.46 104.878595) scale(0.06 -0.06)">
       <use xlink:href="#DejaVuSans-Oblique-6d"/>
       <use xlink:href="#DejaVuSans-33" transform="translate(97.412109 -16.40625) scale(0.7)"/>
      </g>
     </g>
    </g>
    <g id="ytick_7">
     <g id="line2d_29">
      <g>
       <use xlink:href="#m8a78d60e30" x="36.16" y="89.289247" style="stroke: #000000; stroke-width: 0.8"/>
      </g>
     </g>
     <g id="text_29">
      <!-- $m_{4}$ -->
      <g transform="translate(20.46 91.568778) scale(0.06 -0.06)">
       <use xlink:href="#DejaVuSans-Oblique-6d"/>
       <use xlink:href="#DejaVuSans-34" transform="translate(97.412109 -16.40625) scale(0.7)"/>
      </g>
     </g>
    </g>
    <g id="ytick_8">
     <g id="line2d_30">
      <g>
       <use xlink:href="#m8a78d60e30" x="36.16" y="75.979431" style="stroke: #000000; stroke-width: 0.8"/>
      </g>
     </g>
     <g id="text_30">
      <!-- $m_{5}$ -->
      <g transform="translate(20.46 78.258962) scale(0.06 -0.06)">
       <use xlink:href="#DejaVuSans-Oblique-6d"/>
       <use xlink:href="#DejaVuSans-35" transform="translate(97.412109 -16.40625) scale(0.7)"/>
      </g>
     </g>
    </g>
    <g id="ytick_9">
     <g id="line2d_31">
      <g>
       <use xlink:href="#m8a78d60e30" x="36.16" y="62.669614" style="stroke: #000000; stroke-width: 0.8"/>
      </g>
     </g>
     <g id="text_31">
      <!-- $m_{6}$ -->
      <g transform="translate(20.46 64.949145) scale(0.06 -0.06)">
       <use xlink:href="#DejaVuSans-Oblique-6d"/>
       <use xlink:href="#DejaVuSans-36" transform="translate(97.412109 -16.40625) scale(0.7)"/>
      </g>
     </g>
    </g>
    <g id="ytick_10">
     <g id="line2d_32">
      <g>
       <use xlink:href="#m8a78d60e30" x="36.16" y="49.359798" style="stroke: #000000; stroke-width: 0.8"/>
      </g>
     </g>
     <g id="text_32">
      <!-- $m_{7}$ -->
      <g transform="translate(20.46 51.639329) scale(0.06 -0.06)">
       <use xlink:href="#DejaVuSans-Oblique-6d"/>
       <use xlink:href="#DejaVuSans-37" transform="translate(97.412109 -16.40625) scale(0.7)"/>
      </g>
     </g>
    </g>
    <g id="ytick_11">
     <g id="line2d_33">
      <g>
       <use xlink:href="#m8a78d60e30" x="36.16" y="36.049981" style="stroke: #000000; stroke-width: 0.8"/>
      </g>
     </g>
     <g id="text_33">
      <!-- $m_{8}$ -->
      <g transform="translate(20.46 38.329513) scale(0.06 -0.06)">
       <use xlink:href="#DejaVuSans-Oblique-6d"/>
       <use xlink:href="#DejaVuSans-38" transform="translate(97.412109 -16.40625) scale(0.7)"/>
      </g>
     </g>
    </g>
   </g>
   <g id="line2d_34">
    <path d="M 36.16 142.528513 
L 72.610827 89.289247 
" clip-path="url(#p7a7fbe35ce)" style="fill: none; stroke: #ffd92f; stroke-linecap: square"/>
   </g>
   <g id="line2d_35">
    <path d="M 355.104732 36.049981 
L 364.217439 36.049981 
" clip-path="url(#p7a7fbe35ce)" style="fill: none; stroke: #ffffff; stroke-linecap: square"/>
   </g>
   <g id="line2d_36">
    <path d="M 446.231799 129.218696 
L 473.569919 36.049981 
" clip-path="url(#p7a7fbe35ce)" style="fill: none; stroke: #66c2a5; stroke-linecap: square"/>
   </g>
   <g id="line2d_37">
    <path d="M 418.893679 36.049981 
L 446.231799 129.218696 
" clip-path="url(#p7a7fbe35ce)" style="fill: none; stroke: #000000; stroke-linecap: square"/>
   </g>
   <g id="line2d_38">
    <path d="M 382.442852 89.289247 
L 409.780972 75.979431 
" clip-path="url(#p7a7fbe35ce)" style="fill: none; stroke: #e5c494; stroke-linecap: square"/>
   </g>
   <g id="line2d_39">
    <path d="M 364.217439 36.049981 
L 382.442852 89.289247 
" clip-path="url(#p7a7fbe35ce)" style="fill: none; stroke: #000000; stroke-linecap: square"/>
   </g>
   <g id="line2d_40">
    <path d="M 309.541199 102.599064 
L 355.104732 36.049981 
" clip-path="url(#p7a7fbe35ce)" style="fill: none; stroke: #8da0cb; stroke-linecap: square"/>
   </g>
   <g id="line2d_41">
    <path d="M 409.780972 75.979431 
L 418.893679 36.049981 
" clip-path="url(#p7a7fbe35ce)" style="fill: none; stroke: #ffd92f; stroke-linecap: square"/>
   </g>
   <g id="line2d_42">
    <path d="M 227.526839 102.599064 
L 282.203079 142.528513 
" clip-path="url(#p7a7fbe35ce)" style="fill: none; stroke: #000000; stroke-linecap: square"/>
   </g>
   <g id="line2d_43">
    <path d="M 200.18872 142.528513 
L 227.526839 102.599064 
" clip-path="url(#p7a7fbe35ce)" style="fill: none; stroke: #8da0cb; stroke-linecap: square"/>
   </g>
   <g id="line2d_44">
    <path d="M 172.8506 62.669614 
L 200.18872 142.528513 
" clip-path="url(#p7a7fbe35ce)" style="fill: none; stroke: #000000; stroke-linecap: square"/>
   </g>
   <g id="line2d_45">
    <path d="M 118.17436 142.528513 
L 172.8506 62.669614 
" clip-path="url(#p7a7fbe35ce)" style="fill: none; stroke: #e78ac3; stroke-linecap: square"/>
   </g>
   <g id="line2d_46">
    <path d="M 72.610827 89.289247 
L 118.17436 142.528513 
" clip-path="url(#p7a7fbe35ce)" style="fill: none; stroke: #000000; stroke-linecap: square"/>
   </g>
   <g id="line2d_47">
    <path d="M 282.203079 142.528513 
L 309.541199 102.599064 
" clip-path="url(#p7a7fbe35ce)" style="fill: none; stroke: #fc8d62; stroke-linecap: square"/>
   </g>
   <g id="line2d_48">
    <path d="M 300.428493 89.289247 
L 309.541199 49.359798 
" clip-path="url(#p7a7fbe35ce)" style="fill: none; stroke-dasharray: 3.7,1.6; stroke-dashoffset: 0; stroke: #b3b3b3"/>
   </g>
   <g id="line2d_49">
    <path d="M 409.780972 102.599064 
L 446.231799 49.359798 
" clip-path="url(#p7a7fbe35ce)" style="fill: none; stroke-dasharray: 3.7,1.6; stroke-dashoffset: 0; stroke: #fc8d62"/>
   </g>
   <g id="line2d_50">
    <path d="M 391.555559 49.359798 
L 409.780972 102.599064 
" clip-path="url(#p7a7fbe35ce)" style="fill: none; stroke-dasharray: 3.7,1.6; stroke-dashoffset: 0; stroke: #000000"/>
   </g>
   <g id="line2d_51">
    <path d="M 355.104732 62.669614 
L 382.442852 49.359798 
" clip-path="url(#p7a7fbe35ce)" style="fill: none; stroke-dasharray: 3.7,1.6; stroke-dashoffset: 0; stroke: #e78ac3"/>
   </g>
   <g id="line2d_52">
    <path d="M 336.879319 115.90888 
L 355.104732 62.669614 
" clip-path="url(#p7a7fbe35ce)" style="fill: none; stroke-dasharray: 3.7,1.6; stroke-dashoffset: 0; stroke: #a6d854"/>
   </g>
   <g id="line2d_53">
    <path d="M 309.541199 49.359798 
L 336.879319 115.90888 
" clip-path="url(#p7a7fbe35ce)" style="fill: none; stroke-dasharray: 3.7,1.6; stroke-dashoffset: 0; stroke: #000000"/>
   </g>
   <g id="line2d_54">
    <path d="M 291.315786 129.218696 
L 300.428493 89.289247 
" clip-path="url(#p7a7fbe35ce)" style="fill: none; stroke-dasharray: 3.7,1.6; stroke-dashoffset: 0; stroke: #e5c494"/>
   </g>
   <g id="line2d_55">
    <path d="M 99.948946 142.528513 
L 136.399773 115.90888 
" clip-path="url(#p7a7fbe35ce)" style="fill: none; stroke-dasharray: 3.7,1.6; stroke-dashoffset: 0; stroke: #a6d854"/>
   </g>
   <g id="line2d_56">
    <path d="M 227.526839 75.979431 
L 263.977666 142.528513 
" clip-path="url(#p7a7fbe35ce)" style="fill: none; stroke-dasharray: 3.7,1.6; stroke-dashoffset: 0; stroke: #000000"/>
   </g>
   <g id="line2d_57">
    <path d="M 200.18872 89.289247 
L 227.526839 75.979431 
" clip-path="url(#p7a7fbe35ce)" style="fill: none; stroke-dasharray: 3.7,1.6; stroke-dashoffset: 0; stroke: #ffd92f"/>
   </g>
   <g id="line2d_58">
    <path d="M 191.076013 129.218696 
L 200.18872 89.289247 
" clip-path="url(#p7a7fbe35ce)" style="fill: none; stroke-dasharray: 3.7,1.6; stroke-dashoffset: 0; stroke: #b3b3b3"/>
   </g>
   <g id="line2d_59">
    <path d="M 163.737893 142.528513 
L 191.076013 129.218696 
" clip-path="url(#p7a7fbe35ce)" style="fill: none; stroke-dasharray: 3.7,1.6; stroke-dashoffset: 0; stroke: #e5c494"/>
   </g>
   <g id="line2d_60">
    <path d="M 136.399773 115.90888 
L 163.737893 142.528513 
" clip-path="url(#p7a7fbe35ce)" style="fill: none; stroke-dasharray: 3.7,1.6; stroke-dashoffset: 0; stroke: #000000"/>
   </g>
   <g id="line2d_61">
    <path d="M 63.49812 129.218696 
L 99.948946 142.528513 
" clip-path="url(#p7a7fbe35ce)" style="fill: none; stroke-dasharray: 3.7,1.6; stroke-dashoffset: 0; stroke: #000000"/>
   </g>
   <g id="line2d_62">
    <path d="M 36.16 142.528513 
L 63.49812 129.218696 
" clip-path="url(#p7a7fbe35ce)" style="fill: none; stroke-dasharray: 3.7,1.6; stroke-dashoffset: 0; stroke: #b3b3b3"/>
   </g>
   <g id="line2d_63">
    <path d="M 263.977666 142.528513 
L 291.315786 129.218696 
" clip-path="url(#p7a7fbe35ce)" style="fill: none; stroke-dasharray: 3.7,1.6; stroke-dashoffset: 0; stroke: #66c2a5"/>
   </g>
   <g id="line2d_64">
    <path d="M 382.442852 49.359798 
L 391.555559 49.359798 
" clip-path="url(#p7a7fbe35ce)" style="fill: none; stroke-dasharray: 3.7,1.6; stroke-dashoffset: 0; stroke: #ffffff"/>
   </g>
   <g id="patch_3">
    <path d="M 36.16 178.8144 
L 36.16 24.72 
" style="fill: none; stroke: #000000; stroke-width: 0.8; stroke-linejoin: miter; stroke-linecap: square"/>
   </g>
   <g id="patch_4">
    <path d="M 528.246159 178.8144 
L 528.246159 24.72 
" style="fill: none"/>
   </g>
   <g id="patch_5">
    <path d="M 36.16 178.8144 
L 528.246159 178.8144 
" style="fill: none; stroke: #000000; stroke-width: 0.8; stroke-linejoin: miter; stroke-linecap: square"/>
   </g>
   <g id="patch_6">
    <path d="M 36.16 24.72 
L 528.246159 24.72 
" style="fill: none"/>
   </g>
   <g id="text_34">
    <!-- $O_{1,1}$ -->
    <g transform="translate(310.373906 131.218696) scale(0.08 -0.08)">
     <defs>
      <path id="DejaVuSans-Oblique-4f" d="M 2919 4238 
Q 2400 4238 2003 3986 
Q 1606 3734 1313 3219 
Q 1125 2891 1026 2522 
Q 928 2153 928 1778 
Q 928 1128 1239 775 
Q 1550 422 2119 422 
Q 2631 422 3032 676 
Q 3434 931 3719 1434 
Q 3909 1772 4009 2142 
Q 4109 2513 4109 2881 
Q 4109 3528 3796 3883 
Q 3484 4238 2919 4238 
z
M 2100 -91 
Q 1241 -91 748 418 
Q 256 928 256 1813 
Q 256 2319 448 2847 
Q 641 3375 978 3788 
Q 1375 4272 1862 4511 
Q 2350 4750 2938 4750 
Q 3794 4750 4287 4245 
Q 4781 3741 4781 2869 
Q 4781 2331 4593 1812 
Q 4406 1294 4056 872 
Q 3656 384 3173 146 
Q 2691 -91 2100 -91 
z
" transform="scale(0.015625)"/>
      <path id="DejaVuSans-2c" d="M 750 794 
L 1409 794 
L 1409 256 
L 897 -744 
L 494 -744 
L 750 256 
L 750 794 
z
" transform="scale(0.015625)"/>
     </defs>
     <use xlink:href="#DejaVuSans-Oblique-4f" transform="translate(0 0.78125)"/>
     <use xlink:href="#DejaVuSans-31" transform="translate(78.710938 -15.625) scale(0.7)"/>
     <use xlink:href="#DejaVuSans-2c" transform="translate(123.24707 -15.625) scale(0.7)"/>
     <use xlink:href="#DejaVuSans-31" transform="translate(159.135742 -15.625) scale(0.7)"/>
    </g>
   </g>
   <g id="text_35">
    <!-- 56 -->
    <g transform="translate(293.043701 132.296574) scale(0.06 -0.06)">
     <use xlink:href="#DejaVuSans-35"/>
     <use xlink:href="#DejaVuSans-36" x="63.623047"/>
    </g>
   </g>
   <g id="text_36">
    <!-- 68 -->
    <g transform="translate(336.62911 132.296574) scale(0.06 -0.06)">
     <use xlink:href="#DejaVuSans-36"/>
     <use xlink:href="#DejaVuSans-38" x="63.623047"/>
    </g>
   </g>
   <g id="text_37">
    <!-- $O_{1,2}$ -->
    <g transform="translate(492.628039 38.049981) scale(0.08 -0.08)">
     <use xlink:href="#DejaVuSans-Oblique-4f" transform="translate(0 0.78125)"/>
     <use xlink:href="#DejaVuSans-31" transform="translate(78.710938 -15.625) scale(0.7)"/>
     <use xlink:href="#DejaVuSans-2c" transform="translate(123.24707 -15.625) scale(0.7)"/>
     <use xlink:href="#DejaVuSans-32" transform="translate(159.135742 -15.625) scale(0.7)"/>
    </g>
   </g>
   <g id="text_38">
    <!-- 96 -->
    <g transform="translate(475.297834 39.127859) scale(0.06 -0.06)">
     <use xlink:href="#DejaVuSans-39"/>
     <use xlink:href="#DejaVuSans-36" x="63.623047"/>
    </g>
   </g>
   <g id="text_39">
    <!-- 108 -->
    <g transform="translate(516.974493 39.127859) scale(0.06 -0.06)">
     <use xlink:href="#DejaVuSans-31"/>
     <use xlink:href="#DejaVuSans-30" x="63.623047"/>
     <use xlink:href="#DejaVuSans-38" x="127.246094"/>
    </g>
   </g>
   <g id="text_40">
    <!-- $O_{2,1}$ -->
    <g transform="translate(351.381086 104.599064) scale(0.08 -0.08)">
     <use xlink:href="#DejaVuSans-Oblique-4f" transform="translate(0 0.78125)"/>
     <use xlink:href="#DejaVuSans-32" transform="translate(78.710938 -15.625) scale(0.7)"/>
     <use xlink:href="#DejaVuSans-2c" transform="translate(123.24707 -15.625) scale(0.7)"/>
     <use xlink:href="#DejaVuSans-31" transform="translate(159.135742 -15.625) scale(0.7)"/>
    </g>
   </g>
   <g id="text_41">
    <!-- 60 -->
    <g transform="translate(311.269115 105.676941) scale(0.06 -0.06)">
     <use xlink:href="#DejaVuSans-36"/>
     <use xlink:href="#DejaVuSans-30" x="63.623047"/>
    </g>
   </g>
   <g id="text_42">
    <!-- 82 -->
    <g transform="translate(400.418057 105.676941) scale(0.06 -0.06)">
     <use xlink:href="#DejaVuSans-38"/>
     <use xlink:href="#DejaVuSans-32" x="63.623047"/>
    </g>
   </g>
   <g id="text_43">
    <!-- $O_{2,2}$ -->
    <g transform="translate(478.958979 51.359798) scale(0.08 -0.08)">
     <use xlink:href="#DejaVuSans-Oblique-4f" transform="translate(0 0.78125)"/>
     <use xlink:href="#DejaVuSans-32" transform="translate(78.710938 -15.625) scale(0.7)"/>
     <use xlink:href="#DejaVuSans-2c" transform="translate(123.24707 -15.625) scale(0.7)"/>
     <use xlink:href="#DejaVuSans-32" transform="translate(159.135742 -15.625) scale(0.7)"/>
    </g>
   </g>
   <g id="text_44">
    <!-- 90 -->
    <g transform="translate(447.959714 52.437676) scale(0.06 -0.06)">
     <use xlink:href="#DejaVuSans-39"/>
     <use xlink:href="#DejaVuSans-30" x="63.623047"/>
    </g>
   </g>
   <g id="text_45">
    <!-- 108 -->
    <g transform="translate(516.974493 52.437676) scale(0.06 -0.06)">
     <use xlink:href="#DejaVuSans-31"/>
     <use xlink:href="#DejaVuSans-30" x="63.623047"/>
     <use xlink:href="#DejaVuSans-38" x="127.246094"/>
    </g>
   </g>
   <g id="text_46">
    <!-- $O_{3,2}$ -->
    <g transform="translate(378.719206 38.049981) scale(0.08 -0.08)">
     <use xlink:href="#DejaVuSans-Oblique-4f" transform="translate(0 0.78125)"/>
     <use xlink:href="#DejaVuSans-33" transform="translate(78.710938 -15.625) scale(0.7)"/>
     <use xlink:href="#DejaVuSans-2c" transform="translate(123.24707 -15.625) scale(0.7)"/>
     <use xlink:href="#DejaVuSans-32" transform="translate(159.135742 -15.625) scale(0.7)"/>
    </g>
   </g>
   <g id="text_47">
    <!-- 70 -->
    <g transform="translate(356.832648 39.127859) scale(0.06 -0.06)">
     <use xlink:href="#DejaVuSans-37"/>
     <use xlink:href="#DejaVuSans-30" x="63.623047"/>
    </g>
   </g>
   <g id="text_48">
    <!-- 84 -->
    <g transform="translate(409.530763 39.127859) scale(0.06 -0.06)">
     <use xlink:href="#DejaVuSans-38"/>
     <use xlink:href="#DejaVuSans-34" x="63.623047"/>
    </g>
   </g>
   <g id="text_49">
    <!-- $O_{3,1}$ -->
    <g transform="translate(260.254019 104.599064) scale(0.08 -0.08)">
     <use xlink:href="#DejaVuSans-Oblique-4f" transform="translate(0 0.78125)"/>
     <use xlink:href="#DejaVuSans-33" transform="translate(78.710938 -15.625) scale(0.7)"/>
     <use xlink:href="#DejaVuSans-2c" transform="translate(123.24707 -15.625) scale(0.7)"/>
     <use xlink:href="#DejaVuSans-31" transform="translate(159.135742 -15.625) scale(0.7)"/>
    </g>
   </g>
   <g id="text_50">
    <!-- 42 -->
    <g transform="translate(229.254755 105.676941) scale(0.06 -0.06)">
     <use xlink:href="#DejaVuSans-34"/>
     <use xlink:href="#DejaVuSans-32" x="63.623047"/>
    </g>
   </g>
   <g id="text_51">
    <!-- 60 -->
    <g transform="translate(300.178284 105.676941) scale(0.06 -0.06)">
     <use xlink:href="#DejaVuSans-36"/>
     <use xlink:href="#DejaVuSans-30" x="63.623047"/>
    </g>
   </g>
   <g id="text_52">
    <!-- $O_{4,1}$ -->
    <g transform="translate(237.472253 64.669614) scale(0.08 -0.08)">
     <use xlink:href="#DejaVuSans-Oblique-4f" transform="translate(0 0.78125)"/>
     <use xlink:href="#DejaVuSans-34" transform="translate(78.710938 -15.625) scale(0.7)"/>
     <use xlink:href="#DejaVuSans-2c" transform="translate(123.24707 -15.625) scale(0.7)"/>
     <use xlink:href="#DejaVuSans-31" transform="translate(159.135742 -15.625) scale(0.7)"/>
    </g>
   </g>
   <g id="text_53">
    <!-- 30 -->
    <g transform="translate(174.578515 65.747492) scale(0.06 -0.06)">
     <use xlink:href="#DejaVuSans-33"/>
     <use xlink:href="#DejaVuSans-30" x="63.623047"/>
    </g>
   </g>
   <g id="text_54">
    <!-- 62 -->
    <g transform="translate(309.29099 65.747492) scale(0.06 -0.06)">
     <use xlink:href="#DejaVuSans-36"/>
     <use xlink:href="#DejaVuSans-32" x="63.623047"/>
    </g>
   </g>
   <g id="text_55">
    <!-- $O_{4,2}$ -->
    <g transform="translate(406.057326 51.359798) scale(0.08 -0.08)">
     <use xlink:href="#DejaVuSans-Oblique-4f" transform="translate(0 0.78125)"/>
     <use xlink:href="#DejaVuSans-34" transform="translate(78.710938 -15.625) scale(0.7)"/>
     <use xlink:href="#DejaVuSans-2c" transform="translate(123.24707 -15.625) scale(0.7)"/>
     <use xlink:href="#DejaVuSans-32" transform="translate(159.135742 -15.625) scale(0.7)"/>
    </g>
   </g>
   <g id="text_56">
    <!-- 76 -->
    <g transform="translate(384.170768 52.437676) scale(0.06 -0.06)">
     <use xlink:href="#DejaVuSans-37"/>
     <use xlink:href="#DejaVuSans-36" x="63.623047"/>
    </g>
   </g>
   <g id="text_57">
    <!-- 90 -->
    <g transform="translate(436.868883 52.437676) scale(0.06 -0.06)">
     <use xlink:href="#DejaVuSans-39"/>
     <use xlink:href="#DejaVuSans-30" x="63.623047"/>
    </g>
   </g>
   <g id="text_58">
    <!-- $O_{5,1}$ -->
    <g transform="translate(169.126953 117.90888) scale(0.08 -0.08)">
     <use xlink:href="#DejaVuSans-Oblique-4f" transform="translate(0 0.78125)"/>
     <use xlink:href="#DejaVuSans-35" transform="translate(78.710938 -15.625) scale(0.7)"/>
     <use xlink:href="#DejaVuSans-2c" transform="translate(123.24707 -15.625) scale(0.7)"/>
     <use xlink:href="#DejaVuSans-31" transform="translate(159.135742 -15.625) scale(0.7)"/>
    </g>
   </g>
   <g id="text_59">
    <!-- 22 -->
    <g transform="translate(138.127688 118.986758) scale(0.06 -0.06)">
     <use xlink:href="#DejaVuSans-32"/>
     <use xlink:href="#DejaVuSans-32" x="63.623047"/>
    </g>
   </g>
   <g id="text_60">
    <!-- 40 -->
    <g transform="translate(209.051217 118.986758) scale(0.06 -0.06)">
     <use xlink:href="#DejaVuSans-34"/>
     <use xlink:href="#DejaVuSans-30" x="63.623047"/>
    </g>
   </g>
   <g id="text_61">
    <!-- $O_{5,2}$ -->
    <g transform="translate(428.839092 64.669614) scale(0.08 -0.08)">
     <use xlink:href="#DejaVuSans-Oblique-4f" transform="translate(0 0.78125)"/>
     <use xlink:href="#DejaVuSans-35" transform="translate(78.710938 -15.625) scale(0.7)"/>
     <use xlink:href="#DejaVuSans-2c" transform="translate(123.24707 -15.625) scale(0.7)"/>
     <use xlink:href="#DejaVuSans-32" transform="translate(159.135742 -15.625) scale(0.7)"/>
    </g>
   </g>
   <g id="text_62">
    <!-- 70 -->
    <g transform="translate(356.832648 65.747492) scale(0.06 -0.06)">
     <use xlink:href="#DejaVuSans-37"/>
     <use xlink:href="#DejaVuSans-30" x="63.623047"/>
    </g>
   </g>
   <g id="text_63">
    <!-- 106 -->
    <g transform="translate(507.861787 65.747492) scale(0.06 -0.06)">
     <use xlink:href="#DejaVuSans-31"/>
     <use xlink:href="#DejaVuSans-30" x="63.623047"/>
     <use xlink:href="#DejaVuSans-36" x="127.246094"/>
    </g>
   </g>
   <g id="text_64">
    <!-- $O_{6,1}$ -->
    <g transform="translate(123.56342 91.289247) scale(0.08 -0.08)">
     <use xlink:href="#DejaVuSans-Oblique-4f" transform="translate(0 0.78125)"/>
     <use xlink:href="#DejaVuSans-36" transform="translate(78.710938 -15.625) scale(0.7)"/>
     <use xlink:href="#DejaVuSans-2c" transform="translate(123.24707 -15.625) scale(0.7)"/>
     <use xlink:href="#DejaVuSans-31" transform="translate(159.135742 -15.625) scale(0.7)"/>
    </g>
   </g>
   <g id="text_65">
    <!-- 8 -->
    <g transform="translate(76.247492 92.367125) scale(0.06 -0.06)">
     <use xlink:href="#DejaVuSans-38"/>
    </g>
   </g>
   <g id="text_66">
    <!-- 34 -->
    <g transform="translate(181.713097 92.367125) scale(0.06 -0.06)">
     <use xlink:href="#DejaVuSans-33"/>
     <use xlink:href="#DejaVuSans-34" x="63.623047"/>
    </g>
   </g>
   <g id="text_67">
    <!-- $O_{6,2}$ -->
    <g transform="translate(305.817553 77.979431) scale(0.08 -0.08)">
     <use xlink:href="#DejaVuSans-Oblique-4f" transform="translate(0 0.78125)"/>
     <use xlink:href="#DejaVuSans-36" transform="translate(78.710938 -15.625) scale(0.7)"/>
     <use xlink:href="#DejaVuSans-2c" transform="translate(123.24707 -15.625) scale(0.7)"/>
     <use xlink:href="#DejaVuSans-32" transform="translate(159.135742 -15.625) scale(0.7)"/>
    </g>
   </g>
   <g id="text_68">
    <!-- 42 -->
    <g transform="translate(229.254755 79.057308) scale(0.06 -0.06)">
     <use xlink:href="#DejaVuSans-34"/>
     <use xlink:href="#DejaVuSans-32" x="63.623047"/>
    </g>
   </g>
   <g id="text_69">
    <!-- 80 -->
    <g transform="translate(391.30535 79.057308) scale(0.06 -0.06)">
     <use xlink:href="#DejaVuSans-38"/>
     <use xlink:href="#DejaVuSans-30" x="63.623047"/>
    </g>
   </g>
   <g id="text_70">
    <!-- $O_{6,3}$ -->
    <g transform="translate(437.951799 38.049981) scale(0.08 -0.08)">
     <use xlink:href="#DejaVuSans-Oblique-4f" transform="translate(0 0.78125)"/>
     <use xlink:href="#DejaVuSans-36" transform="translate(78.710938 -15.625) scale(0.7)"/>
     <use xlink:href="#DejaVuSans-2c" transform="translate(123.24707 -15.625) scale(0.7)"/>
     <use xlink:href="#DejaVuSans-33" transform="translate(159.135742 -15.625) scale(0.7)"/>
    </g>
   </g>
   <g id="text_71">
    <!-- 84 -->
    <g transform="translate(420.621594 39.127859) scale(0.06 -0.06)">
     <use xlink:href="#DejaVuSans-38"/>
     <use xlink:href="#DejaVuSans-34" x="63.623047"/>
    </g>
   </g>
   <g id="text_72">
    <!-- 96 -->
    <g transform="translate(464.207003 39.127859) scale(0.06 -0.06)">
     <use xlink:href="#DejaVuSans-39"/>
     <use xlink:href="#DejaVuSans-36" x="63.623047"/>
    </g>
   </g>
   <g id="text_73">
    <!-- $O_{7,1}$ -->
    <g transform="translate(228.359546 131.218696) scale(0.08 -0.08)">
     <use xlink:href="#DejaVuSans-Oblique-4f" transform="translate(0 0.78125)"/>
     <use xlink:href="#DejaVuSans-37" transform="translate(78.710938 -15.625) scale(0.7)"/>
     <use xlink:href="#DejaVuSans-2c" transform="translate(123.24707 -15.625) scale(0.7)"/>
     <use xlink:href="#DejaVuSans-31" transform="translate(159.135742 -15.625) scale(0.7)"/>
    </g>
   </g>
   <g id="text_74">
    <!-- 34 -->
    <g transform="translate(192.803928 132.296574) scale(0.06 -0.06)">
     <use xlink:href="#DejaVuSans-33"/>
     <use xlink:href="#DejaVuSans-34" x="63.623047"/>
    </g>
   </g>
   <g id="text_75">
    <!-- 54 -->
    <g transform="translate(272.840164 132.296574) scale(0.06 -0.06)">
     <use xlink:href="#DejaVuSans-35"/>
     <use xlink:href="#DejaVuSans-34" x="63.623047"/>
    </g>
   </g>
   <g id="text_76">
    <!-- $O_{7,2}$ -->
    <g transform="translate(333.155672 91.289247) scale(0.08 -0.08)">
     <use xlink:href="#DejaVuSans-Oblique-4f" transform="translate(0 0.78125)"/>
     <use xlink:href="#DejaVuSans-37" transform="translate(78.710938 -15.625) scale(0.7)"/>
     <use xlink:href="#DejaVuSans-2c" transform="translate(123.24707 -15.625) scale(0.7)"/>
     <use xlink:href="#DejaVuSans-32" transform="translate(159.135742 -15.625) scale(0.7)"/>
    </g>
   </g>
   <g id="text_77">
    <!-- 58 -->
    <g transform="translate(302.156408 92.367125) scale(0.06 -0.06)">
     <use xlink:href="#DejaVuSans-35"/>
     <use xlink:href="#DejaVuSans-38" x="63.623047"/>
    </g>
   </g>
   <g id="text_78">
    <!-- 76 -->
    <g transform="translate(373.079937 92.367125) scale(0.06 -0.06)">
     <use xlink:href="#DejaVuSans-37"/>
     <use xlink:href="#DejaVuSans-36" x="63.623047"/>
    </g>
   </g>
   <g id="text_79">
    <!-- $O_{7,3}$ -->
    <g transform="translate(460.733565 77.979431) scale(0.08 -0.08)">
     <use xlink:href="#DejaVuSans-Oblique-4f" transform="translate(0 0.78125)"/>
     <use xlink:href="#DejaVuSans-37" transform="translate(78.710938 -15.625) scale(0.7)"/>
     <use xlink:href="#DejaVuSans-2c" transform="translate(123.24707 -15.625) scale(0.7)"/>
     <use xlink:href="#DejaVuSans-33" transform="translate(159.135742 -15.625) scale(0.7)"/>
    </g>
   </g>
   <g id="text_80">
    <!-- 82 -->
    <g transform="translate(411.508888 79.057308) scale(0.06 -0.06)">
     <use xlink:href="#DejaVuSans-38"/>
     <use xlink:href="#DejaVuSans-32" x="63.623047"/>
    </g>
   </g>
   <g id="text_81">
    <!-- 108 -->
    <g transform="translate(516.974493 79.057308) scale(0.06 -0.06)">
     <use xlink:href="#DejaVuSans-31"/>
     <use xlink:href="#DejaVuSans-30" x="63.623047"/>
     <use xlink:href="#DejaVuSans-38" x="127.246094"/>
    </g>
   </g>
   <g id="text_82">
    <!-- $O_{8,2}$ -->
    <g transform="translate(232.915899 91.289247) scale(0.08 -0.08)">
     <use xlink:href="#DejaVuSans-Oblique-4f" transform="translate(0 0.78125)"/>
     <use xlink:href="#DejaVuSans-38" transform="translate(78.710938 -15.625) scale(0.7)"/>
     <use xlink:href="#DejaVuSans-2c" transform="translate(123.24707 -15.625) scale(0.7)"/>
     <use xlink:href="#DejaVuSans-32" transform="translate(159.135742 -15.625) scale(0.7)"/>
    </g>
   </g>
   <g id="text_83">
    <!-- 36 -->
    <g transform="translate(201.916635 92.367125) scale(0.06 -0.06)">
     <use xlink:href="#DejaVuSans-33"/>
     <use xlink:href="#DejaVuSans-36" x="63.623047"/>
    </g>
   </g>
   <g id="text_84">
    <!-- 54 -->
    <g transform="translate(272.840164 92.367125) scale(0.06 -0.06)">
     <use xlink:href="#DejaVuSans-35"/>
     <use xlink:href="#DejaVuSans-34" x="63.623047"/>
    </g>
   </g>
   <g id="text_85">
    <!-- $O_{8,1}$ -->
    <g transform="translate(105.338006 131.218696) scale(0.08 -0.08)">
     <use xlink:href="#DejaVuSans-Oblique-4f" transform="translate(0 0.78125)"/>
     <use xlink:href="#DejaVuSans-38" transform="translate(78.710938 -15.625) scale(0.7)"/>
     <use xlink:href="#DejaVuSans-2c" transform="translate(123.24707 -15.625) scale(0.7)"/>
     <use xlink:href="#DejaVuSans-31" transform="translate(159.135742 -15.625) scale(0.7)"/>
    </g>
   </g>
   <g id="text_86">
    <!-- 6 -->
    <g transform="translate(67.134785 132.296574) scale(0.06 -0.06)">
     <use xlink:href="#DejaVuSans-36"/>
    </g>
   </g>
   <g id="text_87">
    <!-- 28 -->
    <g transform="translate(154.374978 132.296574) scale(0.06 -0.06)">
     <use xlink:href="#DejaVuSans-32"/>
     <use xlink:href="#DejaVuSans-38" x="63.623047"/>
    </g>
   </g>
   <g id="text_88">
    <!-- $O_{8,3}$ -->
    <g transform="translate(337.712026 51.359798) scale(0.08 -0.08)">
     <use xlink:href="#DejaVuSans-Oblique-4f" transform="translate(0 0.78125)"/>
     <use xlink:href="#DejaVuSans-38" transform="translate(78.710938 -15.625) scale(0.7)"/>
     <use xlink:href="#DejaVuSans-2c" transform="translate(123.24707 -15.625) scale(0.7)"/>
     <use xlink:href="#DejaVuSans-33" transform="translate(159.135742 -15.625) scale(0.7)"/>
    </g>
   </g>
   <g id="text_89">
    <!-- 60 -->
    <g transform="translate(311.269115 52.437676) scale(0.06 -0.06)">
     <use xlink:href="#DejaVuSans-36"/>
     <use xlink:href="#DejaVuSans-30" x="63.623047"/>
    </g>
   </g>
   <g id="text_90">
    <!-- 76 -->
    <g transform="translate(373.079937 52.437676) scale(0.06 -0.06)">
     <use xlink:href="#DejaVuSans-37"/>
     <use xlink:href="#DejaVuSans-36" x="63.623047"/>
    </g>
   </g>
   <g id="text_91">
    <!-- FJSPT7(8-19-8-2) -->
    <g transform="translate(240.208548 18.72) scale(0.1 -0.1)">
     <defs>
      <path id="DejaVuSans-46" d="M 628 4666 
L 3309 4666 
L 3309 4134 
L 1259 4134 
L 1259 2759 
L 3109 2759 
L 3109 2228 
L 1259 2228 
L 1259 0 
L 628 0 
L 628 4666 
z
" transform="scale(0.015625)"/>
      <path id="DejaVuSans-4a" d="M 628 4666 
L 1259 4666 
L 1259 325 
Q 1259 -519 939 -900 
Q 619 -1281 -91 -1281 
L -331 -1281 
L -331 -750 
L -134 -750 
Q 284 -750 456 -515 
Q 628 -281 628 325 
L 628 4666 
z
" transform="scale(0.015625)"/>
      <path id="DejaVuSans-53" d="M 3425 4513 
L 3425 3897 
Q 3066 4069 2747 4153 
Q 2428 4238 2131 4238 
Q 1616 4238 1336 4038 
Q 1056 3838 1056 3469 
Q 1056 3159 1242 3001 
Q 1428 2844 1947 2747 
L 2328 2669 
Q 3034 2534 3370 2195 
Q 3706 1856 3706 1288 
Q 3706 609 3251 259 
Q 2797 -91 1919 -91 
Q 1588 -91 1214 -16 
Q 841 59 441 206 
L 441 856 
Q 825 641 1194 531 
Q 1563 422 1919 422 
Q 2459 422 2753 634 
Q 3047 847 3047 1241 
Q 3047 1584 2836 1778 
Q 2625 1972 2144 2069 
L 1759 2144 
Q 1053 2284 737 2584 
Q 422 2884 422 3419 
Q 422 4038 858 4394 
Q 1294 4750 2059 4750 
Q 2388 4750 2728 4690 
Q 3069 4631 3425 4513 
z
" transform="scale(0.015625)"/>
      <path id="DejaVuSans-50" d="M 1259 4147 
L 1259 2394 
L 2053 2394 
Q 2494 2394 2734 2622 
Q 2975 2850 2975 3272 
Q 2975 3691 2734 3919 
Q 2494 4147 2053 4147 
L 1259 4147 
z
M 628 4666 
L 2053 4666 
Q 2838 4666 3239 4311 
Q 3641 3956 3641 3272 
Q 3641 2581 3239 2228 
Q 2838 1875 2053 1875 
L 1259 1875 
L 1259 0 
L 628 0 
L 628 4666 
z
" transform="scale(0.015625)"/>
      <path id="DejaVuSans-54" d="M -19 4666 
L 3928 4666 
L 3928 4134 
L 2272 4134 
L 2272 0 
L 1638 0 
L 1638 4134 
L -19 4134 
L -19 4666 
z
" transform="scale(0.015625)"/>
      <path id="DejaVuSans-28" d="M 1984 4856 
Q 1566 4138 1362 3434 
Q 1159 2731 1159 2009 
Q 1159 1288 1364 580 
Q 1569 -128 1984 -844 
L 1484 -844 
Q 1016 -109 783 600 
Q 550 1309 550 2009 
Q 550 2706 781 3412 
Q 1013 4119 1484 4856 
L 1984 4856 
z
" transform="scale(0.015625)"/>
      <path id="DejaVuSans-2d" d="M 313 2009 
L 1997 2009 
L 1997 1497 
L 313 1497 
L 313 2009 
z
" transform="scale(0.015625)"/>
      <path id="DejaVuSans-29" d="M 513 4856 
L 1013 4856 
Q 1481 4119 1714 3412 
Q 1947 2706 1947 2009 
Q 1947 1309 1714 600 
Q 1481 -109 1013 -844 
L 513 -844 
Q 928 -128 1133 580 
Q 1338 1288 1338 2009 
Q 1338 2731 1133 3434 
Q 928 4138 513 4856 
z
" transform="scale(0.015625)"/>
     </defs>
     <use xlink:href="#DejaVuSans-46"/>
     <use xlink:href="#DejaVuSans-4a" x="57.519531"/>
     <use xlink:href="#DejaVuSans-53" x="87.011719"/>
     <use xlink:href="#DejaVuSans-50" x="150.488281"/>
     <use xlink:href="#DejaVuSans-54" x="210.791016"/>
     <use xlink:href="#DejaVuSans-37" x="271.875"/>
     <use xlink:href="#DejaVuSans-28" x="335.498047"/>
     <use xlink:href="#DejaVuSans-38" x="374.511719"/>
     <use xlink:href="#DejaVuSans-2d" x="438.134766"/>
     <use xlink:href="#DejaVuSans-31" x="474.21875"/>
     <use xlink:href="#DejaVuSans-39" x="537.841797"/>
     <use xlink:href="#DejaVuSans-2d" x="601.464844"/>
     <use xlink:href="#DejaVuSans-38" x="637.548828"/>
     <use xlink:href="#DejaVuSans-2d" x="701.171875"/>
     <use xlink:href="#DejaVuSans-32" x="737.255859"/>
     <use xlink:href="#DejaVuSans-29" x="800.878906"/>
    </g>
   </g>
   <g id="legend_1">
    <g id="patch_7">
     <path d="M 79.371673 203.548827 
L 485.034486 203.548827 
Q 486.234486 203.548827 486.234486 202.348827 
L 486.234486 195.341952 
Q 486.234486 194.141952 485.034486 194.141952 
L 79.371673 194.141952 
Q 78.171673 194.141952 78.171673 195.341952 
L 78.171673 202.348827 
Q 78.171673 203.548827 79.371673 203.548827 
z
" style="fill: #ffffff; opacity: 0.8; stroke: #cccccc; stroke-linejoin: miter"/>
    </g>
    <g id="patch_8">
     <path d="M 79.971673 200.501014 
L 91.971673 200.501014 
L 91.971673 196.301015 
L 79.971673 196.301015 
z
" style="fill: #66c2a5; stroke: #808080; stroke-linejoin: miter"/>
    </g>
    <g id="text_92">
     <!-- Job1 -->
     <g transform="translate(96.771673 200.501014) scale(0.06 -0.06)">
      <defs>
       <path id="DejaVuSans-62" d="M 3116 1747 
Q 3116 2381 2855 2742 
Q 2594 3103 2138 3103 
Q 1681 3103 1420 2742 
Q 1159 2381 1159 1747 
Q 1159 1113 1420 752 
Q 1681 391 2138 391 
Q 2594 391 2855 752 
Q 3116 1113 3116 1747 
z
M 1159 2969 
Q 1341 3281 1617 3432 
Q 1894 3584 2278 3584 
Q 2916 3584 3314 3078 
Q 3713 2572 3713 1747 
Q 3713 922 3314 415 
Q 2916 -91 2278 -91 
Q 1894 -91 1617 61 
Q 1341 213 1159 525 
L 1159 0 
L 581 0 
L 581 4863 
L 1159 4863 
L 1159 2969 
z
" transform="scale(0.015625)"/>
      </defs>
      <use xlink:href="#DejaVuSans-4a"/>
      <use xlink:href="#DejaVuSans-6f" x="29.492188"/>
      <use xlink:href="#DejaVuSans-62" x="90.673828"/>
      <use xlink:href="#DejaVuSans-31" x="154.150391"/>
     </g>
    </g>
    <g id="patch_9">
     <path d="M 114.639486 200.501014 
L 126.639486 200.501014 
L 126.639486 196.301015 
L 114.639486 196.301015 
z
" style="fill: #fc8d62; stroke: #808080; stroke-linejoin: miter"/>
    </g>
    <g id="text_93">
     <!-- Job2 -->
     <g transform="translate(131.439486 200.501014) scale(0.06 -0.06)">
      <use xlink:href="#DejaVuSans-4a"/>
      <use xlink:href="#DejaVuSans-6f" x="29.492188"/>
      <use xlink:href="#DejaVuSans-62" x="90.673828"/>
      <use xlink:href="#DejaVuSans-32" x="154.150391"/>
     </g>
    </g>
    <g id="patch_10">
     <path d="M 149.307298 200.501014 
L 161.307298 200.501014 
L 161.307298 196.301015 
L 149.307298 196.301015 
z
" style="fill: #8da0cb; stroke: #808080; stroke-linejoin: miter"/>
    </g>
    <g id="text_94">
     <!-- Job3 -->
     <g transform="translate(166.107298 200.501014) scale(0.06 -0.06)">
      <use xlink:href="#DejaVuSans-4a"/>
      <use xlink:href="#DejaVuSans-6f" x="29.492188"/>
      <use xlink:href="#DejaVuSans-62" x="90.673828"/>
      <use xlink:href="#DejaVuSans-33" x="154.150391"/>
     </g>
    </g>
    <g id="patch_11">
     <path d="M 183.975111 200.501014 
L 195.975111 200.501014 
L 195.975111 196.301015 
L 183.975111 196.301015 
z
" style="fill: #e78ac3; stroke: #808080; stroke-linejoin: miter"/>
    </g>
    <g id="text_95">
     <!-- Job4 -->
     <g transform="translate(200.775111 200.501014) scale(0.06 -0.06)">
      <use xlink:href="#DejaVuSans-4a"/>
      <use xlink:href="#DejaVuSans-6f" x="29.492188"/>
      <use xlink:href="#DejaVuSans-62" x="90.673828"/>
      <use xlink:href="#DejaVuSans-34" x="154.150391"/>
     </g>
    </g>
    <g id="patch_12">
     <path d="M 218.642923 200.501014 
L 230.642923 200.501014 
L 230.642923 196.301015 
L 218.642923 196.301015 
z
" style="fill: #a6d854; stroke: #808080; stroke-linejoin: miter"/>
    </g>
    <g id="text_96">
     <!-- Job5 -->
     <g transform="translate(235.442923 200.501014) scale(0.06 -0.06)">
      <use xlink:href="#DejaVuSans-4a"/>
      <use xlink:href="#DejaVuSans-6f" x="29.492188"/>
      <use xlink:href="#DejaVuSans-62" x="90.673828"/>
      <use xlink:href="#DejaVuSans-35" x="154.150391"/>
     </g>
    </g>
    <g id="patch_13">
     <path d="M 253.310736 200.501014 
L 265.310736 200.501014 
L 265.310736 196.301015 
L 253.310736 196.301015 
z
" style="fill: #ffd92f; stroke: #808080; stroke-linejoin: miter"/>
    </g>
    <g id="text_97">
     <!-- Job6 -->
     <g transform="translate(270.110736 200.501014) scale(0.06 -0.06)">
      <use xlink:href="#DejaVuSans-4a"/>
      <use xlink:href="#DejaVuSans-6f" x="29.492188"/>
      <use xlink:href="#DejaVuSans-62" x="90.673828"/>
      <use xlink:href="#DejaVuSans-36" x="154.150391"/>
     </g>
    </g>
    <g id="patch_14">
     <path d="M 287.978548 200.501014 
L 299.978548 200.501014 
L 299.978548 196.301015 
L 287.978548 196.301015 
z
" style="fill: #e5c494; stroke: #808080; stroke-linejoin: miter"/>
    </g>
    <g id="text_98">
     <!-- Job7 -->
     <g transform="translate(304.778548 200.501014) scale(0.06 -0.06)">
      <use xlink:href="#DejaVuSans-4a"/>
      <use xlink:href="#DejaVuSans-6f" x="29.492188"/>
      <use xlink:href="#DejaVuSans-62" x="90.673828"/>
      <use xlink:href="#DejaVuSans-37" x="154.150391"/>
     </g>
    </g>
    <g id="patch_15">
     <path d="M 322.646361 200.501014 
L 334.646361 200.501014 
L 334.646361 196.301015 
L 322.646361 196.301015 
z
" style="fill: #b3b3b3; stroke: #808080; stroke-linejoin: miter"/>
    </g>
    <g id="text_99">
     <!-- Job8 -->
     <g transform="translate(339.446361 200.501014) scale(0.06 -0.06)">
      <use xlink:href="#DejaVuSans-4a"/>
      <use xlink:href="#DejaVuSans-6f" x="29.492188"/>
      <use xlink:href="#DejaVuSans-62" x="90.673828"/>
      <use xlink:href="#DejaVuSans-38" x="154.150391"/>
     </g>
    </g>
    <g id="line2d_65">
     <path d="M 357.314173 198.401015 
L 363.314173 198.401015 
L 369.314173 198.401015 
" style="fill: none; stroke: #000000; stroke-linecap: square"/>
    </g>
    <g id="text_100">
     <!-- AGV1 -->
     <g transform="translate(374.114173 200.501014) scale(0.06 -0.06)">
      <defs>
       <path id="DejaVuSans-47" d="M 3809 666 
L 3809 1919 
L 2778 1919 
L 2778 2438 
L 4434 2438 
L 4434 434 
Q 4069 175 3628 42 
Q 3188 -91 2688 -91 
Q 1594 -91 976 548 
Q 359 1188 359 2328 
Q 359 3472 976 4111 
Q 1594 4750 2688 4750 
Q 3144 4750 3555 4637 
Q 3966 4525 4313 4306 
L 4313 3634 
Q 3963 3931 3569 4081 
Q 3175 4231 2741 4231 
Q 1884 4231 1454 3753 
Q 1025 3275 1025 2328 
Q 1025 1384 1454 906 
Q 1884 428 2741 428 
Q 3075 428 3337 486 
Q 3600 544 3809 666 
z
" transform="scale(0.015625)"/>
       <path id="DejaVuSans-56" d="M 1831 0 
L 50 4666 
L 709 4666 
L 2188 738 
L 3669 4666 
L 4325 4666 
L 2547 0 
L 1831 0 
z
" transform="scale(0.015625)"/>
      </defs>
      <use xlink:href="#DejaVuSans-41"/>
      <use xlink:href="#DejaVuSans-47" x="66.658203"/>
      <use xlink:href="#DejaVuSans-56" x="144.148438"/>
      <use xlink:href="#DejaVuSans-31" x="212.556641"/>
     </g>
    </g>
    <g id="line2d_66">
     <path d="M 395.484486 198.401015 
L 401.484486 198.401015 
L 407.484486 198.401015 
" style="fill: none; stroke-dasharray: 3.7,1.6; stroke-dashoffset: 0; stroke: #000000"/>
    </g>
    <g id="text_101">
     <!-- AGV2 -->
     <g transform="translate(412.284486 200.501014) scale(0.06 -0.06)">
      <use xlink:href="#DejaVuSans-41"/>
      <use xlink:href="#DejaVuSans-47" x="66.658203"/>
      <use xlink:href="#DejaVuSans-56" x="144.148438"/>
      <use xlink:href="#DejaVuSans-32" x="212.556641"/>
     </g>
    </g>
    <g id="patch_16">
     <path d="M 433.654798 200.501014 
L 445.654798 200.501014 
L 445.654798 196.301015 
L 433.654798 196.301015 
z
" style="fill: #ffffff; stroke-dasharray: 3.7,1.6; stroke-dashoffset: 0; stroke: #808080; stroke-linejoin: miter"/>
    </g>
    <g id="text_102">
     <!-- empty load -->
     <g transform="translate(450.454798 200.501014) scale(0.06 -0.06)">
      <defs>
       <path id="DejaVuSans-6d" d="M 3328 2828 
Q 3544 3216 3844 3400 
Q 4144 3584 4550 3584 
Q 5097 3584 5394 3201 
Q 5691 2819 5691 2113 
L 5691 0 
L 5113 0 
L 5113 2094 
Q 5113 2597 4934 2840 
Q 4756 3084 4391 3084 
Q 3944 3084 3684 2787 
Q 3425 2491 3425 1978 
L 3425 0 
L 2847 0 
L 2847 2094 
Q 2847 2600 2669 2842 
Q 2491 3084 2119 3084 
Q 1678 3084 1418 2786 
Q 1159 2488 1159 1978 
L 1159 0 
L 581 0 
L 581 3500 
L 1159 3500 
L 1159 2956 
Q 1356 3278 1631 3431 
Q 1906 3584 2284 3584 
Q 2666 3584 2933 3390 
Q 3200 3197 3328 2828 
z
" transform="scale(0.015625)"/>
       <path id="DejaVuSans-79" d="M 2059 -325 
Q 1816 -950 1584 -1140 
Q 1353 -1331 966 -1331 
L 506 -1331 
L 506 -850 
L 844 -850 
Q 1081 -850 1212 -737 
Q 1344 -625 1503 -206 
L 1606 56 
L 191 3500 
L 800 3500 
L 1894 763 
L 2988 3500 
L 3597 3500 
L 2059 -325 
z
" transform="scale(0.015625)"/>
       <path id="DejaVuSans-20" transform="scale(0.015625)"/>
       <path id="DejaVuSans-6c" d="M 603 4863 
L 1178 4863 
L 1178 0 
L 603 0 
L 603 4863 
z
" transform="scale(0.015625)"/>
       <path id="DejaVuSans-61" d="M 2194 1759 
Q 1497 1759 1228 1600 
Q 959 1441 959 1056 
Q 959 750 1161 570 
Q 1363 391 1709 391 
Q 2188 391 2477 730 
Q 2766 1069 2766 1631 
L 2766 1759 
L 2194 1759 
z
M 3341 1997 
L 3341 0 
L 2766 0 
L 2766 531 
Q 2569 213 2275 61 
Q 1981 -91 1556 -91 
Q 1019 -91 701 211 
Q 384 513 384 1019 
Q 384 1609 779 1909 
Q 1175 2209 1959 2209 
L 2766 2209 
L 2766 2266 
Q 2766 2663 2505 2880 
Q 2244 3097 1772 3097 
Q 1472 3097 1187 3025 
Q 903 2953 641 2809 
L 641 3341 
Q 956 3463 1253 3523 
Q 1550 3584 1831 3584 
Q 2591 3584 2966 3190 
Q 3341 2797 3341 1997 
z
" transform="scale(0.015625)"/>
       <path id="DejaVuSans-64" d="M 2906 2969 
L 2906 4863 
L 3481 4863 
L 3481 0 
L 2906 0 
L 2906 525 
Q 2725 213 2448 61 
Q 2172 -91 1784 -91 
Q 1150 -91 751 415 
Q 353 922 353 1747 
Q 353 2572 751 3078 
Q 1150 3584 1784 3584 
Q 2172 3584 2448 3432 
Q 2725 3281 2906 2969 
z
M 947 1747 
Q 947 1113 1208 752 
Q 1469 391 1925 391 
Q 2381 391 2643 752 
Q 2906 1113 2906 1747 
Q 2906 2381 2643 2742 
Q 2381 3103 1925 3103 
Q 1469 3103 1208 2742 
Q 947 2381 947 1747 
z
" transform="scale(0.015625)"/>
      </defs>
      <use xlink:href="#DejaVuSans-65"/>
      <use xlink:href="#DejaVuSans-6d" x="61.523438"/>
      <use xlink:href="#DejaVuSans-70" x="158.935547"/>
      <use xlink:href="#DejaVuSans-74" x="222.412109"/>
      <use xlink:href="#DejaVuSans-79" x="261.621094"/>
      <use xlink:href="#DejaVuSans-20" x="320.800781"/>
      <use xlink:href="#DejaVuSans-6c" x="352.587891"/>
      <use xlink:href="#DejaVuSans-6f" x="380.371094"/>
      <use xlink:href="#DejaVuSans-61" x="441.552734"/>
      <use xlink:href="#DejaVuSans-64" x="502.832031"/>
     </g>
    </g>
   </g>
  </g>
 </g>
 <defs>
  <clipPath id="p7a7fbe35ce">
   <rect x="36.16" y="24.72" width="492.086159" height="154.0944"/>
  </clipPath>
 </defs>
</svg>
